<?xml version="1.0" encoding="utf-8"?>
<!-- Generator: Adobe Illustrator 25.0.0, SVG Export Plug-In . SVG Version: 6.00 Build 0)  -->
<svg version="1.1" id="Layer_1" xmlns="http://www.w3.org/2000/svg" xmlns:xlink="http://www.w3.org/1999/xlink" x="0px" y="0px"
	 viewBox="0 0 1136.6 643.2" style="enable-background:new 0 0 1136.6 643.2;" xml:space="preserve">
<style type="text/css">
	.st0{opacity:0.2;fill:#5E55BE;}
	.st1{fill:#FFC9B6;}
	.st2{fill:#D2DAFF;}
	.st3{fill:#FFFFFF;}
	.st4{fill:#2B1B8C;}
	.st5{fill:#79209E;}
	.st6{fill:#903BB7;}
	.st7{fill:#FFB9A4;}
	.st8{fill:#FE61CA;}
	.st9{fill:#EBEFFF;}
	.st10{fill:#5E55BE;}
	.st11{fill:#776ED7;}
	.st12{fill:#B0BAFF;}
	.st13{fill:#B9C8FC;}
	.st14{fill:#89DBEF;}
	.st15{fill:#F0FCFF;}
	.st16{fill:#3F26A8;}
	.st17{fill:#E04FB7;}
	.st18{fill:#535FE9;}
	.st19{fill:#C847AB;}
	.st20{fill:#4052DB;}
	.st21{fill:#FFB19C;}
	.st22{fill:#FFC1AE;}
	.st23{fill:#C5CFFF;}
	.st24{fill:#5768BC;}
	.st25{fill:#3A46CF;}
	.st26{fill:#4543AF;}
	.st27{fill:#2E428E;}
	.st28{fill:#6C7EFF;}
</style>
<g>
	<polygon class="st0" points="777.1,275.9 945.5,329.3 1055.4,294.7 887,241.2 	"/>
	<polygon class="st0" points="303.3,308.3 398.9,337.6 488,309.9 392.4,280.5 	"/>
	<path class="st0" d="M1016.9,571.1l94.9-29.9L993,503.5c6-8.3,9.2-17,9.2-25.8c0-69.3-193.3-125.6-431.7-125.6
		c-37.5,0-73.9,1.4-108.6,4c3.3-1.9,6.5-3.8,10.2-5.2c10.2-3.7,43.6-9,57.4-11.9s15.7-11.2-3.5-19.6c-19.3-8.5-43.4-2.9-57.3,2.5
		c-15.6,6-55.7,10.4-57.4,17.2c-1.3,5.4,9.8,15,21.4,19.6c-170.9,16.7-294,63.7-294,119c0,2,0.2,4.1,0.5,6.1l-126.1,40l91.8,29
		l72.6-23c28,17.9,69.9,33.5,121.8,45.7l-29.3,9.3l94.9,29.9l59.3-18.7c45.7,4.8,94.9,7.4,146.3,7.4c44.6,0,87.6-2,128-5.6
		l88.6,28.1l94.9-29.9l-54.3-17.2c42.4-9.1,78.7-20.5,107.1-33.5L1016.9,571.1z M570.4,551.2c-144.6,0-261.7-34.1-261.7-76.1
		c0-42,117.2-76.1,261.7-76.1c144.5,0,261.7,34.1,261.7,76.1C832.2,517.1,715,551.2,570.4,551.2z"/>
	<path class="st0" d="M693.5,284.7c-15.6,6-62.7,13.7-64.3,20.5c-1.7,6.8,12.8,20.3,26.7,22.1c13.8,1.8,34.4-5,44.7-8.7
		c10.2-3.7,50.1-15.9,63.8-18.8c13.7-2.9,21.7-11.1,2.4-19.6C747.5,271.8,707.4,279.3,693.5,284.7z"/>
	<g>
		<path class="st1" d="M824.1,101.4c-8.1,0-12.5-1.1-20.6-1.6c2.1-1.5,2.8-3.2,2.4-5.4c-0.2-0.7-2-1.1-2.8-0.4
			c-5.2,3.9-9.5,6.5-16.3,9.4c-4.1,0.9-14.7,4.4-24.9,6.5c-8.9,1.8-19.6,4.8-19.6,4.8s-7.3,11.2-4.5,12.4c2.8,1.1,5.8,1.5,11.5,0.6
			c5.7-0.9,32.1-13.9,45.8-19.5c9.9-1.1,9.4,0.5,19.4,1.5c4.5,0.5,11.3-0.6,15.7-1.9C836.4,105.9,830.6,101.4,824.1,101.4z"/>
		<path class="st2" d="M726.1,111.8c0,0,1.3-2.4,6.8-1.5c2.6,0.4,7.4,0.9,11.1,2.8c1.5,0.8,6.7,14,1.4,16c-5.3,2-9.7,1.3-13.5,1.6
			c-3.7,0.3-10.9-0.9-10.5-3.9C721.8,123.8,726.1,111.8,726.1,111.8z"/>
		<path class="st3" d="M734.6,120.5c0.3-3.6,0.1-5.1-2.1-8.4c-10.7-4-18.5-8.2-29-10.9c-7.1-1.8-16-6.9-24.1-2.9
			c-8.7,4.2-10.7,14.8-4,20.4c9.5,8.1,21.2,6.2,35.6,7.8c5,0.5,11.6,1.9,17.3,2.6C732.6,126.7,734.2,124.2,734.6,120.5z"/>
		<path class="st4" d="M716.3,271.4c0,0-0.6,2.7-2.1,5.4c-1.5,2.8,0.3,6.6,0.3,6.6s1.1,1.7,5.8,2.2c4.4,0.5,7.9-0.1,7.9-0.1
			s4.3,2.8,9.9,5c5.6,2.2,18.1,3.9,21.4,3.6c5.5-0.5,8.4-2.8,8-4.3c-0.4-1.5-6.8-5.6-12.1-7.4c-3.4-1.2-11.2-5.1-13.5-6.5
			c-3.9-2.3-6.7-4.8-6.7-4.8L716.3,271.4z"/>
		<path class="st5" d="M712.2,158.2c0,0,15.8,22,18.2,30.9c2.4,8.9,9.8,16.7,12.7,27.9c2.9,11.2,0.5,27.9-0.9,38.8
			c-0.5,4.4,0.2,11.2,1.7,17.3c-12.8,6-28.3,3.1-33.4,1.9c-1.3-2.9-5.7-26.1-7-34.1c-1.3-8.1,2.2-13.8,2.2-13.8s-21.5-25.2-29-35.1
			c-7.5-9.9-2.4-22.2-2.4-22.2L712.2,158.2z"/>
		<path class="st4" d="M638.6,296.4c0,0-2.9,5.9-2.5,9.3c0.4,3.4,1.9,4.2,3.7,5.4c1.9,1.2,4.1,0.7,4.1,0.7s0.9,7.1,7,9.9
			c6.1,2.9,17.2,3.1,22.3,2.1c5.1-1,1.7-6.1-3.2-11c-5-5-11.3-10.3-12.9-14.8C644.8,297,638.6,296.4,638.6,296.4z"/>
		<path class="st6" d="M655.6,167.4c0,0-7.7,6-13.9,16.5c-4.3,7.4-3.6,25.1-3.6,25.1s-1.1,17.5,0.9,23.5c2.1,6,1.9,7.3,1.9,7.3
			s-9,9.3-7.6,26.4c1.4,17.1-1.8,31.8-1.8,31.8s7.5,6.5,15.6,6.5c17.8,0,21.3-5.2,21.3-5.2s4.7-33.4,9.7-41.7
			c5-8.3,6.8-17.8,6.8-17.8l10.2-40.7c0,0,20.1-7.2,9.8-25.3C698.5,162.4,655.6,167.4,655.6,167.4z"/>
		<path class="st4" d="M628.9,124.5c1.6-4.3,2.7-7.4,8.8-10.4c12-5.9,37.4-12.9,51.7-11.7c10.3,4.5,18,7.9,21.7,13.3
			c3.4,4.9,6.1,8.6,6.1,16.6c0,15.4,4.8,32.7,7.2,38.5c-1.9,2-8.1,5.7-10.8,7.2c-2.8-0.9-5.1-3-8.5-4.1c-3.3,4.5-6.6,8.3-9.4,8.5
			c-19.1,1.6-52.6-1.2-55-4.4c1.4-10.2-1.9-23.8-9.8-35.3C626.6,136.4,626.4,131.3,628.9,124.5z"/>
		<path class="st1" d="M607.1,157.5c0,0-4.9,9.2-7.8,19.2c-2.9,9.9-2.9,16.2-5.7,19.9s-4.9,3-10.2,7.7c-5.3,4.7-5.6,8.7-6.6,10
			c-1,1.3,3.4,0.7,3.4,0.7s-1.7,1.5-0.6,2.8c0.8,1,3.4,0,3.4,0s-0.5,1.8,2.1,1.6c3.4-0.2,8.3-6.3,10.8-8.9c2.9-3.1,6.2-3.9,8.6,0
			c2.4,3.7,7.2,1.8,5.3,0c-1.9-1.8-5.1-7.9-2.4-10.5c2.7-2.6,23.5-30.1,20.6-37.9C625,153.9,607.1,157.5,607.1,157.5z"/>
		<path class="st2" d="M608.4,150.5c-8.1,0.5-12,7.4-12.4,11.3c-0.5,3.9,15.7,9.4,31.3,9c7.8-0.2,7.9-1.6,9.8-4.6
			c1.9-3,5.5-7.5,0.8-9.3C628.5,153.3,608.4,150.5,608.4,150.5z"/>
		<path class="st7" d="M684.8,97.4c0,0-2.1,7.5,2.9,10c5,2.6,5,7.9-5,9.7c-12.1,2.2-20.7-2.6-28.3-5.9c3.3-3.8,4.9-3.8,4.9-14.4
			C659.4,88.2,684.8,97.4,684.8,97.4z"/>
		<path class="st3" d="M671.4,118.5c8.1,3.8,15.7,14.4,21.1,18.5c5.5,4.1,10.5,5.6,12.6,1c2.6-5.9-1-20.3-8.9-25.9
			c-3.4,1.2-6,4.1-10.7,4.9C679,118.1,672.8,116.2,671.4,118.5z"/>
		<path class="st8" d="M691,123.2c0,0,1,7.3,1.5,12.5c0,0.3,0,0.7,0.1,1.3c3,2.4,6.2,4.7,9.5,7c1.2-2,2.2-4,3.1-6
			c-0.2-0.5-0.4-1-0.5-1.5c-2.6-6.9-4.6-10.2-6.2-14.2c1.7-3.7-1.9-7.9-1.9-7.9c-3.4-1.3-14.3,0.9-13.8,2.7
			C683.9,120.9,691,123.2,691,123.2z"/>
		<path class="st2" d="M658.9,103.9c0,0,2.3,4.5,8.6,7.1c7.6,3.1,21.8,3.6,21.8,5.7c-4.1,0-4.9,0.1-4.9,1.8c0,3.1-1.6,3.8-1.6,3.8
			s-10.3-1.6-17.7-3.3c-9.3-2.1-13.5-9.1-13.5-9.1S653.4,103.7,658.9,103.9z"/>
		<polygon class="st3" points="675.5,160.6 650.3,169.5 654.5,172.2 679.5,163.5 		"/>
		<path class="st2" d="M689.3,104.2c0,0,6,3.6,8.6,5.2c2.6,1.6,1.1,4.7,2.4,6c1.3,1.4,1.9,2.3,1.9,2.3s-5.4-0.6-6.4-2.3
			c-1-1.7-6.4,1.4-6.4,1.4l-3.8-1.7c0,0,5.7-2,3.8-4.1c-1.9-2.1-5.2-5-5.2-5L689.3,104.2z"/>
		<g>
			<path class="st1" d="M662.8,79.1c7.5-4.5,27.3-6.4,34.4,0.2c5.3,5,5.6,13.9,4.1,18c-3,8.6-16,13.7-30.9,7.1
				C656.3,98.2,649.9,86.9,662.8,79.1z"/>
			<path class="st4" d="M700.2,75.9c-6.2-4-7.6-5.2-16-6.4c-9.8-1.4-33.9,2.8-29.7,11.6c-11.2,2.9-7.7,9.7-4.8,12.4
				c3,2.8,9.6,8.3,9.6,8.3s6.3-4.2,8.3-15.2c4.7,2.2,16.6,3.3,23.5-1.7c10.1,0.7,19.7-2,19.8-3.6C710.8,81.3,705.5,79.3,700.2,75.9z
				"/>
			<path class="st1" d="M670.6,92.2c0,0-4.3-3.6-8.2-0.9c-3.9,2.7,4.1,5.4,4.1,5.4L670.6,92.2z"/>
		</g>
		<path class="st3" d="M638.7,156.7c5.1-8.2,15.3-17.6,17.1-21.8c2.8-6.8,1.4-12.9-5.6-17.8c-7.2-5-9.9-6.9-21.7-1.8
			c-13.8,6-14.4,10.7-18.2,20.1c-1.1,2.9-2.8,10.1-5.7,19c0,4.4,9.8,7.5,18.8,8.4C630.1,163.4,636.5,160.3,638.7,156.7z"/>
		<path class="st1" d="M698.4,100.7c0,0-3.4-0.7-5.3-2.8c-1.2,2.1-7.6,3.9-7.6,3.9s4.3,2.5,7.6,1.5
			C696.5,102.3,698.4,100.7,698.4,100.7z"/>
	</g>
	<g>
		<path class="st9" d="M1026.8,60.7c10.6,3.1,22,5.6,13.9,30.4c-8.1,24.9-23.4,67.7-23.4,67.7l-64-15c0,0,37.8-73.6,45.1-79.4
			C1005.7,58.6,1019.7,58.6,1026.8,60.7z"/>
		<g>
			<path class="st10" d="M1036.5,288.6l1.1,3.5c0.6,1.9-1.7,3.7-5.2,4c-3.4,0.3-6.7-0.9-7.3-2.8l-1.1-3.5L1036.5,288.6z"/>
			<path class="st11" d="M1024,289.8c0.3,1.1,3.4,1.7,6.8,1.3c3.4-0.3,5.9-1.4,5.6-2.5c-0.3-1.1-3.4-1.7-6.8-1.3
				C1026.2,287.6,1023.7,288.7,1024,289.8z"/>
			<path class="st3" d="M972.6,120.9l7.8-0.4l53.6,168c0.2,0.7-1.4,1.4-3.5,1.6c-2.1,0.2-4-0.2-4.2-0.8v0l0,0L972.6,120.9z"/>
		</g>
		<g>
			<path class="st10" d="M892.6,243.6l1.1,3.5c0.6,1.9-1.7,3.7-5.2,4c-3.4,0.3-6.7-0.9-7.3-2.8l-1.1-3.5L892.6,243.6z"/>
			<path class="st11" d="M880.2,244.7c0.3,1.1,3.4,1.7,6.8,1.3c3.4-0.3,5.9-1.4,5.6-2.5c-0.3-1.1-3.4-1.7-6.8-1.3
				C882.3,242.5,879.8,243.7,880.2,244.7z"/>
			<path class="st3" d="M828.7,75.9l7.8-0.4l53.6,168c0.2,0.7-1.4,1.4-3.5,1.6c-2.1,0.2-4-0.2-4.2-0.8c0,0,0,0,0,0L828.7,75.9z"/>
		</g>
		<g>
			<g>
				<path class="st10" d="M919.3,322.2l-0.7,3.5c-0.4,1.9,2.1,3.6,5.5,3.8c3.4,0.2,6.6-1.1,7-3l0.7-3.5L919.3,322.2z"/>
				<path class="st11" d="M931.8,323c-0.2,1.1-3.2,1.8-6.7,1.6c-3.5-0.2-6.1-1.3-5.9-2.3c0.2-1.1,3.2-1.8,6.7-1.6
					C929.4,320.9,932.1,321.9,931.8,323z"/>
			</g>
			<path class="st3" d="M922.4,322.2C922.4,322.2,922.4,322.2,922.4,322.2l57.4-175.7c0-0.1,0-0.3,0.1-0.4h6.9
				c-0.1,0.3-0.1,0.7-0.2,1L929,322.8c0,0,0,0,0,0c0,0,0,0,0,0l0,0.1c0,0,0,0,0,0c-0.3,0.5-1.7,0.9-3.5,0.7
				c-1.8-0.1-3.2-0.7-3.1-1.2C922.3,322.3,922.4,322.3,922.4,322.2z"/>
		</g>
		<g>
			<g>
				<path class="st10" d="M771.7,276.7l-0.7,3.5c-0.4,1.9,2.1,3.6,5.5,3.8c3.4,0.2,6.6-1.1,7-3l0.7-3.5L771.7,276.7z"/>
				<path class="st11" d="M784.3,277.4c-0.2,1.1-3.2,1.8-6.7,1.6c-3.5-0.2-6.1-1.3-5.9-2.3c0.2-1.1,3.2-1.8,6.7-1.6
					C781.9,275.3,784.5,276.4,784.3,277.4z"/>
			</g>
			<path class="st3" d="M774.9,276.6C774.9,276.6,774.9,276.6,774.9,276.6l57.4-175.7c0-0.1,0-0.3,0.1-0.4h6.9
				c-0.1,0.3-0.1,0.7-0.2,1l-57.7,175.7c0,0,0,0,0,0c0,0,0,0,0,0l0,0.1c0,0,0,0,0,0c-0.3,0.5-1.7,0.9-3.5,0.7
				c-1.8-0.1-3.2-0.7-3.1-1.2C774.7,276.7,774.8,276.7,774.9,276.6z"/>
		</g>
		<polygon class="st9" points="775.9,177.6 962.6,236.3 982,230.1 795.2,171.4 		"/>
		<polygon class="st3" points="775.9,173.7 962.6,232.4 964.7,231.8 777.9,173 		"/>
		<polygon class="st12" points="982,230.1 982,231.5 962.6,237.8 962.6,232.4 964.7,231.8 964.7,235.7 		"/>
		<polygon class="st13" points="775.9,173.7 775.9,179 962.6,237.8 962.6,232.5 		"/>
		<polygon class="st14" points="795.2,171.3 981.7,230.1 1031.9,78.3 845.4,19.5 		"/>
		<polygon class="st13" points="791.8,172.6 978.3,231.4 1028.5,79.6 842.1,20.8 		"/>
		<g>
			<polygon class="st12" points="796.3,170.9 844.7,24.7 846,25.1 797.9,170.5 975.5,226.8 975.3,227.5 			"/>
			<polygon class="st3" points="846,25.1 1023.7,81.4 975.5,226.8 797.9,170.5 			"/>
		</g>
		<polygon class="st12" points="1028.5,79.6 1031.9,78.3 981.7,230.1 978.3,231.4 		"/>
		<polygon class="st15" points="842.1,20.8 845.4,19.5 1031.9,78.3 1028.5,79.6 		"/>
		<polygon class="st2" points="861.4,26.7 1009.3,73.6 964.1,209.9 816.2,163 		"/>
		<polygon class="st9" points="852.2,26.7 1000.1,73.6 954.9,209.9 807,163 		"/>
		<polygon class="st12" points="830.2,146.7 844.7,151.3 840.3,164.7 825.8,160.1 		"/>
		<polygon class="st16" points="924.7,176.2 939.2,180.8 934.7,194.2 920.2,189.6 		"/>
		<polygon class="st17" points="860.1,131.2 874.6,135.8 862.9,171.4 848.4,166.8 		"/>
		<polygon class="st6" points="903.5,160.3 918,164.9 910.6,186.8 896.1,182.2 		"/>
		<polygon class="st18" points="879.4,146.7 893.9,151.3 884.8,178.5 870.3,173.9 		"/>
		<g>
			<polygon class="st3" points="859.8,50.8 982.6,89.8 960.9,155.7 838,116.8 			"/>
			<polygon class="st18" points="863.8,39.4 986.6,78.3 985.4,82.7 862.5,43.8 			"/>
			<polygon class="st18" points="822,157.9 944.8,196.8 944.2,199 821.4,160.1 			"/>
			<polygon class="st17" points="846.1,115.7 871.8,89.6 874.7,99.8 899.2,81.1 904.4,98.9 915.1,93.9 918.1,102.8 946.4,84 
				959.3,150.3 			"/>
			<polygon class="st6" points="837.8,116.7 859.2,95 862.7,115.6 893.9,91.9 899.1,109.6 909.8,104.6 917.2,126.3 946.4,108.9 
				955.2,153.9 			"/>
			<polygon class="st18" points="961.7,109.6 924,135.2 918,112 899.5,121.4 895.3,110.1 876.4,120.2 871.6,103.7 846.5,119.5 
				960.9,155.7 			"/>
			<polygon class="st2" points="954.9,209.9 964.1,209.9 1009.3,73.6 1000.1,73.6 			"/>
			<polygon class="st11" points="1009.3,73.6 1000.1,73.6 852.2,26.7 861.4,26.7 			"/>
			<path class="st3" d="M852.2,26.7l147.9,46.8c0,0,3.1-6.3,9.2-9.3c11.1-5.6,17.5-3.5,17.5-3.5l-147.9-47
				C878.9,13.7,856.7,13.3,852.2,26.7z"/>
		</g>
	</g>
	<g>
		<g>
			<g>
				<g>
					<path class="st3" d="M135.8,292.1v56.3c0,0.8,2,1.4,4.4,1.4c2.4,0,4.4-0.6,4.4-1.4v-56.3H135.8z"/>
					<path class="st3" d="M206.4,310.7V371c0,0.8,2,1.4,4.4,1.4c2.4,0,4.4-0.6,4.4-1.4v-60.3H206.4z"/>
					<path class="st3" d="M277,295.2v53.6c0,0.8,2,1.4,4.4,1.4c2.4,0,4.4-0.6,4.4-1.4v-53.6H277z"/>
				</g>
				<g>
					<polygon class="st8" points="292.3,296.2 210.8,322 129.4,296.2 210.9,270.5 					"/>
					<polygon class="st8" points="292.3,292.7 210.8,318.5 129.4,292.7 210.9,267 					"/>
					<polygon class="st19" points="129.4,292.7 129.4,296.2 210.8,322 210.8,318.5 					"/>
					<polygon class="st17" points="292.3,292.7 292.3,296.2 210.8,322 210.8,318.5 					"/>
				</g>
				<g>
					<path class="st19" d="M214.4,210.2l-5.7-1.7l0,0c-1.2-0.4-2.8-0.4-4.5,0.2l-67.9,21.4c-3.8,1.2-6.9,4.4-6.9,7.2V293l6,1.8
						l75.7-27.6l1.8-53.5L214.4,210.2z"/>
					<path class="st17" d="M217,269v-55.6c0-2.8-3.1-4.1-6.9-2.9l-67.8,21.4c-3.8,1.2-6.9,4.4-6.9,7.2v55.6L217,269z"/>
				</g>
			</g>
			<g>
				<g>
					<path class="st1" d="M279.8,334.2c5.6-0.3,12-1.5,18-3.3c0.3,1.9,0.7,3.7,1.2,5.3c3.2,11.4,1,13.7,13.3,17.1
						c11,3,12.5,4.1,18.3,7.7c4.1,2.6-1.9,4.3-6.9,4.2c-10.9-0.3-21.7-5.7-27.7-6.4c-6-0.7-14.3-1.5-13.9-5c0.4-3.8,2.1-3.8,2.4-7.1
						C284.7,343.7,282.5,339.1,279.8,334.2z"/>
					<path class="st4" d="M282.7,351.1c0,0,3.5,2.2,4.6,3.5c5,1.4,10.8,2.2,17.4,4.3c6.6,2.1,10.7,3.4,15.1,1.5c4.4-1.9,4.8-3,4.8-3
						s7.5,2.2,9.6,3.7c2.1,1.6-3.3,6-13.4,5.8c-10.1-0.2-14.6-3.5-20.6-5.6c-5.9-2.1-11-2.5-16.4-4.1
						C278.5,355.6,282.7,351.1,282.7,351.1z"/>
					<path class="st1" d="M223.8,346.8c5.6,0.3,11.4-4.6,17.9-5.7c-0.3,1.9-1.7,3.6-1.8,5.3c-0.7,11.5-4.9,17.8,6,22.4
						c9.8,4.1,10.9,5.3,15.4,9.4c3.2,3-3.4,4.1-8.2,3.5c-10.6-1.4-19.4-7.8-25.1-9.1c-5.7-1.3-13.5-2.9-12-6.3c1.6-3.7,4-5,5.4-8.2
						C222.7,355.1,224.8,351.8,223.8,346.8z"/>
					<path class="st4" d="M217.6,363.6c0,0,2.7,2.5,3.4,3.9c4.5,1.9,9.9,3.2,15.6,5.9c5.8,2.7,9.4,4.4,14.4,2.9
						c5-1.5,5.7-2.5,5.7-2.5s6.7,2.9,8.2,4.6c1.5,1.8-5.2,5.6-15.1,4.4c-9.9-1.2-13.2-4.9-18.3-7.5c-5.1-2.7-10-3.6-14.7-5.7
						C212,367.6,217.6,363.6,217.6,363.6z"/>
					<path class="st10" d="M313.7,296.4c-2.5-4.5-16-6.9-27.7-11.5c-18.8-7.4-55.7-18.4-55.7-18.4S203.1,280,202,280.2
						c-1.1,0.2,1.3,14.5,33.7,12.3c15.7,7.2,42.7,13.1,52.6,15.1C298.5,304.5,305.9,301.3,313.7,296.4z"/>
					<path class="st10" d="M280.9,300.3c-1.8,1.8-5,6-5.1,13.8c0,8.1,3.4,15.9,8.4,30.3c9.1,2.7,17,0.9,17,0.9s2.7-11.7,7.6-24.5
						c3.6-9.4,6.6-21.5,4.8-24.3C302.9,299,292.6,299.7,280.9,300.3z"/>
					<path class="st11" d="M249.4,315.9c-5.9,0.9-12,2.3-18,2.9c-2.2,1.8-4.2,4.2-5.6,7.5c-3.6,8-2,23.8-4.4,31.8
						c4.9,3.4,11.4,2.6,17.6,0.7c5.1-8.7,35.6-43.3,29.3-49C260.4,311.6,257.8,314.7,249.4,315.9z"/>
					<path class="st11" d="M245.5,322.4c-0.1,1,19.3-7,22.8-12.6c-11.6-8.5-25.3-13.8-49.3-24.6c-2.6-8.4-16.1-12.1-29-14.2
						c0.1-0.1,0.3-0.1,0.4-0.2c0.3-0.2-23.2,4.6-23.4,4.8c-7.2,10.6-7.2,23.8,21.8,28.1C209,317.9,236.9,322.1,245.5,322.4z"/>
				</g>
				<g>
					<path class="st19" d="M260.8,233.3c-6.7-6.6-21.3-20.6-29.3-24c-6.7-2.9-13.6-0.9-17.7-0.2l-4.2,11.9c0,0,18.2,13.7,31.2,21.9
						C248.4,241.3,256.2,237.6,260.8,233.3z"/>
					<path class="st8" d="M237.3,250.2c-2.9,4.5-4.7,9.7,2.2,19.2c-10.3,6.9-23.5,9.8-43.9,10.1c-17.1,0.2-26.7-1.5-34.3-4.3
						c0-5.1,3.2-12.6,3.1-19c-0.1-10,1.7-20.5,6-28.8c3.6-6.9,15.7-13.8,32.8-18.3c19.9-5.3,24.4-1.5,24.4-1.5s14.9,15.9,19.5,23.2
						c3.6,5.7,5.8,7.9,1.1,11.6C246.2,244,243.1,245.2,237.3,250.2z"/>
					<path class="st7" d="M199.5,207c0.2-0.5,17,3.5,17,3.7c0.1,2.9,2.6,4.2,5.7,6.8c1.6,1.4,1.5,4.3,4.3,7.2
						c2.4,2.5,1.2,2.1-2.3,3.4c-5.5,2.1-15.7,0.7-24.8-4.5c1.2-0.8-4.8-3.3-4-5C196.4,216.4,197.6,212.3,199.5,207z"/>
					<path class="st3" d="M209.3,225.8l17.9-3.2c0,0,10.7,11.1,11.9,16.4c1.2,5.3-10.2,15.9-10.2,15.9s-4.8-12.3-8.3-17.6
						C217.1,232,209.3,225.8,209.3,225.8z"/>
					<path class="st17" d="M224.8,210.2c0,0,11,9.1,15.6,14c-3,2-7.3,3.7-7.3,3.7l11.6,2.7c0,0,0.3,6.2-2.9,11.5
						c-3.2,5.4-14.5,14.8-14.5,14.8l1-3.8c0,0,8.2-8.6,6-14.6c-2.2-5.9-8.9-13.8-13.4-18.7c-4.5-4.9-4.4-6-4.4-6L224.8,210.2z"/>
				</g>
				<path class="st5" d="M239,215.6c-0.4-0.4-1.2-0.8-2-1.1c2.7-2.1,0.3-7-5.7-6.5c-7.7,0.7-8.1,6.7-1.1,7.7
					c-0.1,0.2-0.3,0.4-0.3,0.6c-0.2,0.7,0.1,1.4,0.9,2c1.5,1,4.3,1.4,6.4,0.7C239.3,218.3,240.1,216.8,239,215.6z"/>
				<path class="st17" d="M199.9,207.8c0,0-1.1,2.5-2.2,4.5c0.9,2,5.8,5.4,9.5,8c10.3,7.2,16.2,13.8,19.5,20.3
					c3.4,6.5,0.6,16.4,0.6,16.4s-3.3-6.2-10.6-11.1c-3.1-2.1-10.4-8.8-10.4-8.8l7.3-5.9l-13.2-1.4c0,0-10.4-12.3-7.1-17
					C197.4,206.8,199.9,207.8,199.9,207.8z"/>
				<g>
					<path class="st1" d="M237.3,198.6c-0.3-3.6-1.8-8.1-6.9-10.6c-5-2.5-13.6-2.7-20.1-2.5c-10.1,0.4-17,6.5-15.2,13.6
						c1.7,6.5,9.8,16.5,23.1,17.8C233,218.3,237.8,204.1,237.3,198.6z"/>
					<path class="st1" d="M207.3,201.3c0,0-4.3-3.8-7.4-1.4c-3.1,2.3-0.1,7.1,3.8,7C207.6,206.7,207.3,201.3,207.3,201.3z"/>
				</g>
				<path class="st5" d="M246.9,189.3c-2.4-2.8-6.8-5.6-12.7-5.9c-0.3,0-0.6,0-0.9,0c-0.2-0.6-0.8-1.2-1.6-1.8
					c-3.2-2-9.9-2.5-14.4-2.5c-6.5-0.1-14.8,1.6-18,4.8c-6.1,1.3-11.4,3.7-14.4,7.1c-1.9,2.1-4.9,10.9,0.2,12.9
					c-5.3,3.3-6.9,8.9-3.4,12.7c2.7,2.9,8.5,5.7,14.9,5.5c0.4,0,0.8-0.1,1.2-0.1c0.9,0.3,1.9,0.6,3,0.6c3.4,0.2,6.8-0.9,8.5-2.5
					c1.6-1.6,1.7-3.6-0.3-5c-0.7-0.5-1.8-0.9-3-1.2c1.2-1.4,1-3.3-0.3-4.4c-0.8-0.7-2-1.3-3.4-1.7c2.3-1.1,3.8-2.6,3.5-4.3
					c0-0.1-0.1-0.2-0.1-0.2c0.9,0.2,1.7,0.3,2.7,0.4c5.3,0.4,11.3-1,14.8-3.4c0.1,0,0.2,0,0.3,0c2.7,0.2,5.4-0.3,7.3-1.3
					c0.7-0.4,1.2-0.8,1.6-1.3c1.3,0.5,2.9,0.8,4.3,1c0.8,1.8,0.8,3.6,0,5.5c4.2,0.4,9.2-2.6,10.8-4.4
					C250.3,196.4,249.8,192.6,246.9,189.3z"/>
			</g>
		</g>
		<g>
			<g>
				<g>
					<path class="st3" d="M321.8,253.1v55.5c0,0.8,1.9,1.4,4.3,1.4c2.4,0,4.3-0.6,4.3-1.4v-55.5H321.8z"/>
					<path class="st3" d="M391.5,271.4v59.5c0,0.8,1.9,1.4,4.3,1.4c2.4,0,4.3-0.6,4.3-1.4v-59.5H391.5z"/>
					<path class="st3" d="M461.1,256.2V309c0,0.8,1.9,1.4,4.3,1.4c2.4,0,4.3-0.6,4.3-1.4v-52.8H461.1z"/>
				</g>
				<g>
					<polygon class="st8" points="476.2,257.2 395.8,282.5 315.5,257.2 395.9,231.8 					"/>
					<polygon class="st8" points="476.2,253.7 395.8,279.1 315.5,253.7 395.9,228.3 					"/>
					<polygon class="st19" points="315.5,253.7 315.5,257.2 395.8,282.5 395.8,279.1 					"/>
					<polygon class="st17" points="476.2,253.7 476.2,257.2 395.8,282.5 395.8,279.1 					"/>
				</g>
				<g>
					<path class="st19" d="M399.3,172.3l-5.6-1.7l0,0c-1.2-0.4-2.8-0.4-4.5,0.2L322.3,192c-3.8,1.2-6.8,4.4-6.8,7.1v54.9l5.9,1.8
						l74.7-27.2l1.8-52.7L399.3,172.3z"/>
					<path class="st17" d="M401.9,230.3v-54.9c0-2.7-3.1-4-6.8-2.8l-66.9,21.1c-3.8,1.2-6.8,4.4-6.8,7.1v54.9L401.9,230.3z"/>
				</g>
			</g>
			<g>
				<g>
					<path class="st4" d="M415.9,329.7c0,0-2,5.9-1.1,9.2c0.8,3.3,2.4,4,4.4,5.1c2,1,4.1,0.5,4.1,0.5s1.9,6.8,8.2,9.3
						c6.4,2.5,17.2,2.3,22,1.1c4.8-1.2,0.8-6-4.7-10.6c-5.6-4.6-12.5-9.5-14.7-13.8C422,330,415.9,329.7,415.9,329.7z"/>
					<path class="st4" d="M475.6,310.6c0,0-0.7,2.7-2.3,5.5c-1.6,2.8,0.1,6.8,0.1,6.8s1.1,1.8,5.9,2.3c4.5,0.5,8.1,0,8.1,0
						s4.3,3,10,5.2c5.7,2.3,18.3,4.1,21.8,3.9c5.6-0.4,8.6-2.8,8.3-4.3c-0.4-1.5-6.8-5.8-12.2-7.7c-3.5-1.2-11.3-5.3-13.6-6.8
						c-3.9-2.4-6.7-5-6.7-5L475.6,310.6z"/>
					<path class="st20" d="M454.5,261.6c3.4-10.7,14.7-20.6,28.9-14.2c5.3,2.4,15.1,4.8,15.1,13.6c0,10.5,3.1,37.1,3.1,49.2
						c-3.3,5.3-27.7,8.5-31.9,3.5c-1.7-4.4-11.5-37.8-14.2-45.2C453.7,263.7,454.5,261.6,454.5,261.6z"/>
					<path class="st20" d="M388.1,225c0,0,19,1.9,41.5,5.7c10.3,1.8,38.6,11.3,53.8,16.8c3.9,1.4,9.4,5.3,10,7.1
						c-13.7,2.3-20.5,10-25.9,17.3c-14.9-3.7-55.7-16.3-67.2-18.9c-16.8-3.8-23.5-16.7-23.5-16.7L388.1,225z"/>
					<path class="st18" d="M407.8,272.5c4-9.4,30.4-8.2,35.6-0.9c3.7,5.3,3.7,5.3,2.3,15.9c-1.3,10-3.8,32.7-3.8,44.9
						c-10.7,5.3-27.9,2.1-30.5-0.3c0.5-17-7-30.2-7.4-44.5C403.8,279.2,407.5,273.2,407.8,272.5z"/>
					<path class="st18" d="M344.3,238.9c2.2-3.9-0.4-5.8,7.5-7.7c3.8-0.9,8.9-0.7,12.9-0.9c7.1-0.4,14.3-0.7,21.4-1.1
						c2.7-0.1,10.1,3,10.1,3c6.3,5,5,6.2,7.8,12.1c13.7,6.2,34.1,19.2,40.7,29.2c1.3,1.9-27.4,8.4-32.2,12.5
						c-5-0.8-36.9-14.8-45.5-18.4c-7.5-3.2-13.8-4.4-19.4-8.6C341.6,254.4,341.4,244.2,344.3,238.9z"/>
				</g>
				<g>
					<g>
						<path class="st20" d="M397.7,166.6c0,0,3.8-4.1,17,0.6c5.2,1.8,15,13,22.5,22.3c1.6,1.9,5.3,10.3,8.6,14.1
							c-8,3.5-7.6,9.2-7.2,14.9c-0.1,0-6.8,2.2-14.3-0.9c-11.6-4.7-25.8-15.5-26-16.5c-0.3-1.4,1-3.2,3.1-5.3
							C399,183,397.7,166.6,397.7,166.6z"/>
						<path class="st18" d="M379.5,168.8c3.9-0.4,19.2-1.9,20.6-1.4c9.8,3.6,19.9,15.2,20.7,22.9c0.6,6.5-0.2,33.8-0.8,35.5
							c3.6,0.8,10.1,2.9,5.1,5.1c-7.9,3.5-33,11.2-44.9,12.5c-17.3,1.9-29,1.1-35.3-5.5c-2.4-2.5-3.1-4.6,1-5.6
							c-7.5-6.9-0.8-27.8-2.3-33.8c-2.2-9-7.1-14.8,3.7-20.7C352,175.1,371,169.7,379.5,168.8z"/>
						<path class="st3" d="M365.3,171.7c-5.1,1.5-8.2,3,0,7.2c8.2,4.2,20.9,7,32.9,3.9c19.4-5.1,5.6-14.6-3.1-15.5
							C386.4,166.3,373.7,169.3,365.3,171.7z"/>
						<path class="st21" d="M368.2,160c0,0,16.7,3.4,23.1,6.5c6.5,3.1,19.7,8.7,5,13.6c-11.8,3.9-24.9-2-30.5-6.3
							C369.5,171.8,368.2,160,368.2,160z"/>
						<path class="st12" d="M367.9,238.8c0,0,12.7-2.5,16.8-3.4c3.3-0.7,18-3.6,18-3.6s-11.6,4.4-18.3,5.8
							C377.6,239,367.9,238.8,367.9,238.8z"/>
						<path class="st12" d="M390.4,226.9c0,0-8.8,0.9-15.6,1.2c-6.8,0.3-18.1,1.7-18.1,1.7s12.5,1.2,19.6,0.4
							C383.3,229.4,390.4,226.9,390.4,226.9z"/>
					</g>
					<g>
						<path class="st22" d="M405.7,153.5c-1.6-3.5-4.6-7.7-10.5-9.6c-5.8-1.9-14.2-1.2-20.4-0.3c-9.6,1.5-14.2,8.1-9.9,14.8
							c4,6.1,15.4,14.9,28.7,14.8c6.8-0.1,10.8-3.3,12.5-7.1C408.2,161.7,407,156.4,405.7,153.5z"/>
						<path class="st4" d="M361.5,146.9c1.9-7.2,15.3-13.9,29.6-7.8c7.2-6.6,27.1,3.6,19.4,9.1c7.6,3.6-2.8,9.7-13.3,6
							c-5.6,5.7-17.9,2.5-20.9-0.4c-0.1,2.3-4.7,4.5-8.7,4.7c1.9,2.4,3.2,6.2,0.7,8.8c-1.3-2.9-9.2-4.6-10.2-7.4
							c-0.4-1.2,0.3-2.4,1.6-3.3C354.6,154.3,353.8,146.1,361.5,146.9z"/>
						<path class="st22" d="M373.5,158c0,0-3.4-2.5-6.8-0.5c-3.4,2,5.5,5.8,5.5,5.8L373.5,158z"/>
					</g>
				</g>
				<path class="st20" d="M436.6,198.4c4.3,2.4,24,8.7,34.5,14.2c3.1,1,3,3.6,3,7.3c0.1,5.8-15,8-19.8,7c-12.4-2.6-21.8-5-30.1-9.3
					C426,207.7,432.3,196.1,436.6,198.4z"/>
				<path class="st20" d="M347.2,177.7c-9.7,3.2-17.6,7.7-17.6,20.1c0,10.8,1.8,27.9,5.3,31.5c3.4,3.6,23.1,6,37.5,6
					c9.8,0,19.3-1.6,22.1-4.2c4.6-4.3,1.6-7.7-0.4-10.1c-3.2-4-37.7-4.5-37.7-4.5s5.6-6.3,6.9-18.4
					C364.6,186.1,356.1,178.9,347.2,177.7z"/>
				<path class="st3" d="M384.3,222c-2.5,2-4,7.4-1,10c3,2.6,16.1,2.9,18.3,0.8c1.6-1.4,4.2-6.9,2.4-10.8c-0.7-1.6-4.4-1.8-6.7-1.8
					C390.2,220.3,386.5,220.2,384.3,222z"/>
				<g>
					<polygon class="st3" points="411.8,213.1 426.5,224.7 426.9,226.7 423.9,225.6 409.3,214.1 					"/>
					<path class="st3" d="M411.8,213.1c0.2,0.2-0.2,0.5-0.9,0.8c-0.7,0.3-1.4,0.4-1.7,0.2c-0.2-0.2,0.2-0.5,0.9-0.8
						C410.8,213,411.6,212.9,411.8,213.1z"/>
				</g>
				<path class="st22" d="M398.8,222c0,0,10.7-3.4,16.3-4.8c5.6-1.3,4.2-0.9,11.9,2.4c7.6,3.3,7.6,4.8,5.6,5.2
					c-2.1,0.4,2.9,2.9,0,3.8c-2.9,0.9-9.8-0.8-13.2-0.5c-8.9,1-10,2.3-14.5,2.8c-6,0.7-9.8,0.1-11.5-1.2
					C391.2,228,391.4,224.2,398.8,222z"/>
				<g>
					<path class="st2" d="M476.7,207.7c-1.6-1.7-6.1-2.2-6.6-2.2c0,0,0,0,0,0c0,0,0,0,0,0l0,0c-1.2,0-2.7,0.2-4,0.7l-31.3,9.8
						c-3.2,1-6,3.2-7.4,5.5c-0.6,0.9-16,21.9-18.9,26.1c-1.2,1.7-1.5,2.9-1.3,3.7c0,0,0.1,0.2,0.1,0.3c0.7,1.9,4,1.8,4,1.8l7.1-9.9
						c0.1,0,0.2-0.1,0.3-0.1l26.3-8.3c4.7-1.5,8.4-4.9,11.3-8.3c0,0,10.9-12.8,14.4-16.8l1,0.5C471.6,210.6,477.8,208.9,476.7,207.7
						z"/>
					<path class="st12" d="M441.5,244.4l-26.9,8.4c-4.7,1.5-6.6,0.7-3.1-4.3c2.9-4.2,18.7-24.9,19.3-25.9c1.5-2.3,4.3-4.5,7.4-5.5
						l31.9-9.9c2.8-0.9,6-1.1,6.6,0.5c0.3,0.6-0.3,1.5-1,2.3c-0.4,0.5-22.9,26.1-22.9,26.1C449.9,239.5,446.2,242.9,441.5,244.4z"/>
				</g>
				<path class="st22" d="M457.7,222c3.7-2.6,10.2-5.5,12.2-5.5c1,0.6,2,1.6-0.5,3.1c1.5,1,0.7,2.4,0,3.3c1.4,1.6-0.6,3.1-8.7,5.4
					c-2.9,0.8-2.6-0.7-2-1.8c-2.5,0.4-2.5-1.1-1.9-1.9C454.9,223.9,456.1,223.1,457.7,222z"/>
			</g>
		</g>
		<g>
			<polygon class="st18" points="567.5,584.7 545.2,577.7 545.2,461.6 567.5,468.6 			"/>
			<polygon class="st20" points="567.5,584.7 589.8,577.7 589.8,461.6 567.5,468.6 			"/>
		</g>
		<g>
			<polygon class="st18" points="567.5,388 545.2,381 545.2,264.9 567.5,271.9 			"/>
			<polygon class="st20" points="567.5,388 589.8,381 589.8,264.9 567.5,271.9 			"/>
		</g>
		<g>
			<polygon class="st18" points="266,538.4 243.7,531.4 243.7,415.3 266,422.3 			"/>
			<polygon class="st20" points="266,538.4 288.4,531.4 288.4,415.3 266,422.3 			"/>
		</g>
		<g>
			<polygon class="st11" points="825.5,538.4 803.2,531.4 803.2,415.3 825.5,422.3 			"/>
			<polygon class="st20" points="825.5,538.4 847.8,531.4 847.8,415.3 825.5,422.3 			"/>
		</g>
		<g>
			<polygon class="st18" points="789.7,420.6 767.4,413.5 767.4,297.4 789.7,304.4 			"/>
			<polygon class="st20" points="789.7,420.6 812,413.5 812,297.4 789.7,304.4 			"/>
		</g>
		<g>
			<polygon class="st18" points="320.8,420.6 298.5,413.5 298.5,297.4 320.8,304.4 			"/>
			<polygon class="st20" points="320.8,420.6 343.1,413.5 343.1,297.4 320.8,304.4 			"/>
		</g>
		<g>
			<path class="st3" d="M995.6,356.2c-23.1-62.8-205.9-111.8-428.1-111.8c-222.2,0-405,48.9-428.1,111.8h-2.5v13.4
				c0,69.1,192.8,125.2,430.6,125.2c237.8,0,430.6-56.1,430.6-125.2v-13.4H995.6z M567.5,434.2c-144.6,0-261.7-34.1-261.7-76.1
				c0-42,117.2-76.1,261.7-76.1c144.5,0,261.7,34.1,261.7,76.1C829.2,400.1,712,434.2,567.5,434.2z"/>
			<path class="st12" d="M996.7,348.4c-23.1-63-206.5-112.1-429.2-112.1c-222.8,0-406.1,49.1-429.2,112.1h-2.5v13.5
				c0,69.3,193.3,125.6,431.8,125.6c238.4,0,431.7-56.2,431.7-125.6v-13.5H996.7z M567.5,434.2c-144.6,0-261.7-34.1-261.7-76.1
				c0-42,117.2-76.1,261.7-76.1c144.5,0,261.7,34.1,261.7,76.1C829.2,400.1,712,434.2,567.5,434.2z"/>
			<path class="st3" d="M567.5,226.6c-238.5,0-431.8,56.2-431.8,125.6c0,69.3,193.3,125.6,431.8,125.6
				c238.4,0,431.7-56.2,431.7-125.6C999.2,282.8,805.9,226.6,567.5,226.6z M567.5,425.5c-144.6,0-261.7-34.1-261.7-76.1
				c0-42,117.2-76.1,261.7-76.1c144.5,0,261.7,34.1,261.7,76.1C829.2,391.5,712,425.5,567.5,425.5z"/>
		</g>
		<g>
			<polygon class="st23" points="599.1,453.3 541.3,471.6 480.5,452.4 480.5,451.4 537.7,433.9 			"/>
			<path class="st9" d="M480.5,451.4c0,0,17.3,4.3,22.9,6c1.5,0.5,5.2,2.8,5.2,2.8l1.3,0.4c0,0,2.4-0.4,5.4,0.5
				c7.6,2.3,26.2,9.4,26.2,9.4l58.1-18.3c0,0-17.2-6.5-23.8-8.6c-4.7-1.5-7.8-1.3-7.8-1.3l-1.3-0.4c0,0-2.3-1.9-3.6-2.3
				c-7.2-2.4-24.4-6.5-24.4-6.5L480.5,451.4z"/>
			<g>
				<polygon class="st2" points="509.5,460.7 567.9,442.3 566.6,441.9 508.2,460.3 				"/>
			</g>
			<polygon class="st2" points="599.5,452.1 599.1,452.8 599.1,453.3 541.3,471.6 541.5,470.5 			"/>
			<path class="st2" d="M510.5,461.9c0,0,0.4-0.9-1.5-1.5c-2.3-0.8-2.6,0.2-2.6,0.2L510.5,461.9z"/>
			<path class="st12" d="M506.5,459.8c0,0-4.2-2.3-7.4-3c-3.2-0.7-4.9-1.1-4.9-1.1s3.7,1.3,5.8,1.9
				C502,458.2,506.5,459.8,506.5,459.8z"/>
			<path class="st12" d="M521.7,464.4c0,0-4-1.8-6.5-2.5c-2.5-0.7-3.3-0.3-3.3-0.3s2.9,0.6,4,1C517,462.9,521.7,464.4,521.7,464.4z"
				/>
		</g>
		<g>
			<polygon class="st23" points="313.2,406 255.5,424.3 194.6,405.1 194.6,404.1 251.9,386.6 			"/>
			<path class="st9" d="M194.6,404.1c0,0,17.3,4.3,22.9,6c1.5,0.5,5.2,2.8,5.2,2.8l1.3,0.4c0,0,2.4-0.4,5.4,0.5
				c7.6,2.3,26.2,9.4,26.2,9.4l58.1-18.3c0,0-17.2-6.5-23.8-8.6c-4.7-1.5-7.8-1.3-7.8-1.3l-1.3-0.4c0,0-2.3-1.9-3.6-2.3
				c-7.2-2.4-24.4-6.5-24.4-6.5L194.6,404.1z"/>
			<g>
				<polygon class="st2" points="223.6,413.4 282,395 280.8,394.6 222.3,413 				"/>
			</g>
			<polygon class="st2" points="313.7,404.8 313.2,405.5 313.2,406 255.5,424.3 255.6,423.2 			"/>
			<path class="st2" d="M224.6,414.6c0,0,0.4-0.9-1.5-1.5c-2.3-0.8-2.6,0.2-2.6,0.2L224.6,414.6z"/>
			<path class="st12" d="M220.6,412.5c0,0-4.2-2.3-7.4-3c-3.2-0.7-4.9-1.1-4.9-1.1s3.7,1.3,5.8,1.9
				C216.1,410.9,220.6,412.5,220.6,412.5z"/>
			<path class="st12" d="M235.9,417.1c0,0-4-1.8-6.5-2.5c-2.5-0.7-3.3-0.3-3.3-0.3s2.9,0.6,4,1C231.1,415.6,235.9,417.1,235.9,417.1
				z"/>
		</g>
		<g>
			<polygon class="st23" points="187,319.1 244.7,337.5 305.5,318.3 305.5,317.3 248.3,299.8 			"/>
			<path class="st9" d="M305.5,317.3c0,0-17.3,4.3-22.9,6c-1.5,0.5-5.2,2.8-5.2,2.8l-1.3,0.4c0,0-2.4-0.4-5.4,0.5
				c-7.6,2.3-26.2,9.4-26.2,9.4L186.5,318c0,0,17.2-6.5,23.8-8.6c4.7-1.5,7.8-1.3,7.8-1.3l1.3-0.4c0,0,2.3-1.9,3.6-2.3
				c7.2-2.4,24.4-6.5,24.4-6.5L305.5,317.3z"/>
			<g>
				<polygon class="st2" points="276.6,326.6 218.1,308.1 219.4,307.7 277.8,326.2 				"/>
			</g>
			<polygon class="st2" points="186.5,318 187,318.6 187,319.1 244.7,337.5 244.6,336.4 			"/>
			<path class="st2" d="M275.5,327.7c0,0-0.4-0.9,1.5-1.5c2.3-0.8,2.6,0.2,2.6,0.2L275.5,327.7z"/>
			<path class="st12" d="M279.6,325.7c0,0,4.2-2.3,7.4-3c3.2-0.7,4.9-1.1,4.9-1.1s-3.7,1.3-5.8,1.9
				C284,324.1,279.6,325.7,279.6,325.7z"/>
			<path class="st12" d="M264.3,330.2c0,0,4-1.8,6.5-2.5c2.5-0.7,3.3-0.3,3.3-0.3s-2.9,0.6-4,1C269.1,328.7,264.3,330.2,264.3,330.2
				z"/>
		</g>
		<g>
			<polygon class="st9" points="803.5,443.2 759.7,457 683,432.7 726.7,418.9 			"/>
			<polygon class="st2" points="683,432.7 683,433.4 759.7,457.7 759.7,457 			"/>
			<polygon class="st23" points="803.5,443.2 803.5,443.8 759.7,457.7 759.7,457 			"/>
			<polygon class="st18" points="733.2,423 696.7,434.5 690.4,432.5 726.8,421.1 			"/>
			<g>
				<polygon class="st24" points="738.6,424.7 737.4,424.4 731,426.4 732.1,426.8 				"/>
				<polygon class="st24" points="701,435.8 702.2,436.2 731.1,427.1 729.9,426.7 				"/>
				<polygon class="st24" points="741.2,425.5 740,425.2 733.6,427.2 734.7,427.6 				"/>
				<polygon class="st24" points="703.6,436.7 704.8,437 733.7,427.9 732.5,427.5 				"/>
				<polygon class="st24" points="706.2,437.5 707.4,437.8 736.2,428.7 735.1,428.4 				"/>
				<polygon class="st24" points="743.8,426.3 742.6,426 736.1,428 737.3,428.4 				"/>
				<polygon class="st24" points="708.8,438.3 710,438.6 738.8,429.5 737.7,429.2 				"/>
				<polygon class="st24" points="746.4,427.1 745.2,426.8 738.7,428.8 739.9,429.2 				"/>
				<polygon class="st24" points="748.9,427.9 747.8,427.6 741.3,429.6 742.4,430 				"/>
				<polygon class="st24" points="711.4,439.1 712.6,439.4 741.4,430.3 740.2,430 				"/>
				<polygon class="st24" points="751.5,428.8 750.3,428.4 743.9,430.5 745,430.8 				"/>
				<polygon class="st24" points="714,439.9 715.2,440.3 744,431.2 742.8,430.8 				"/>
				<polygon class="st24" points="716.6,440.7 717.7,441 746.5,432 745.4,431.6 				"/>
				<polygon class="st24" points="754.1,429.6 752.9,429.2 746.4,431.3 747.6,431.6 				"/>
				<polygon class="st24" points="719,441.5 720.2,441.9 749.1,432.8 747.9,432.4 				"/>
				<polygon class="st24" points="756.6,430.4 755.4,430 749,432.1 750.1,432.4 				"/>
				<polygon class="st24" points="759.2,431.2 758,430.8 751.5,432.9 752.7,433.2 				"/>
				<polygon class="st24" points="721.6,442.3 722.8,442.7 751.6,433.6 750.5,433.2 				"/>
				<polygon class="st24" points="754.2,434.4 753.1,434 742.5,437.4 742.5,437.4 724.2,443.2 725.4,443.5 743.4,437.8 743.4,437.8 
									"/>
				<polygon class="st24" points="761.8,432 760.6,431.7 754.1,433.7 755.3,434.1 				"/>
				<polygon class="st24" points="764.4,432.8 763.2,432.5 756.7,434.5 757.8,434.9 				"/>
				<polygon class="st24" points="726.8,443.9 728,444.3 756.8,435.2 755.6,434.8 				"/>
				<polygon class="st24" points="766.8,433.7 765.6,433.3 759.2,435.3 760.4,435.7 				"/>
				<polygon class="st24" points="729.2,444.8 730.4,445.1 759.3,436 758.2,435.6 				"/>
				<polygon class="st24" points="792.5,441.8 791.4,441.4 784.9,443.4 786.1,443.8 				"/>
				<polygon class="st24" points="755,452.9 756.2,453.2 785,444.1 783.9,443.8 				"/>
				<polygon class="st24" points="757.6,453.7 758.7,454 787.6,444.9 786.4,444.6 				"/>
				<polygon class="st24" points="795.1,442.5 793.9,442.2 787.5,444.2 788.6,444.6 				"/>
			</g>
			<g>
				<polygon class="st8" points="756.1,450.5 754.5,451 742.2,447.1 743.7,446.6 				"/>
				<polygon class="st8" points="759.4,449.4 757.9,449.9 748.8,447.1 750.4,446.6 				"/>
				<polygon class="st8" points="762.8,448.3 761.3,448.8 754.5,446.7 756.1,446.2 				"/>
				<polygon class="st8" points="766.1,447.3 764.5,447.8 753.9,444.5 755.4,444 				"/>
				<polygon class="st8" points="769.4,446.3 767.8,446.8 763.3,445.3 764.8,444.8 				"/>
				<polygon class="st23" points="772.8,445.2 771.3,445.7 762.2,442.8 763.8,442.3 				"/>
				<polygon class="st23" points="776.1,444.2 774.5,444.7 767.7,442.5 769.3,442 				"/>
				<polygon class="st23" points="779.3,443.2 777.7,443.6 762.8,438.9 764.4,438.5 				"/>
				<polygon class="st23" points="782.6,442.1 781.1,442.6 770.3,439.2 771.9,438.7 				"/>
				<polygon class="st23" points="786.1,441 784.5,441.5 779.9,440.1 781.5,439.6 				"/>
				<polygon class="st4" points="788.2,440.3 751.9,451.8 752.4,451.9 788.7,440.5 				"/>
			</g>
			<polygon class="st8" points="739.7,444 738.6,443.6 732.1,445.7 733.3,446 			"/>
			<polygon class="st8" points="742.4,444.8 741.2,444.5 734.8,446.5 735.9,446.9 			"/>
		</g>
		<g>
			<polygon class="st9" points="475.6,265 431.9,278.8 355.1,254.5 398.9,240.7 			"/>
			<polygon class="st2" points="355.1,254.5 355.1,255.2 431.9,279.5 431.9,278.8 			"/>
			<polygon class="st23" points="475.6,265 475.6,265.7 431.9,279.5 431.9,278.8 			"/>
			<polygon class="st18" points="424.9,274.2 461.4,262.7 467.7,264.6 431.4,276.1 			"/>
			<g>
				<polygon class="st24" points="419.5,272.5 420.7,272.8 427.2,270.8 426,270.4 				"/>
				<polygon class="st24" points="457.1,261.3 455.9,261 427.1,270.1 428.2,270.4 				"/>
				<polygon class="st24" points="417,271.6 418.1,272 424.6,270 423.4,269.6 				"/>
				<polygon class="st24" points="454.5,260.5 453.3,260.2 424.5,269.3 425.6,269.6 				"/>
				<polygon class="st24" points="451.9,259.7 450.8,259.4 421.9,268.5 423.1,268.8 				"/>
				<polygon class="st24" points="414.4,270.8 415.6,271.2 422,269.1 420.9,268.8 				"/>
				<polygon class="st24" points="449.3,258.9 448.2,258.5 419.3,267.6 420.5,268 				"/>
				<polygon class="st24" points="411.8,270 413,270.4 419.4,268.3 418.3,268 				"/>
				<polygon class="st24" points="409.2,269.2 410.4,269.6 416.9,267.5 415.7,267.2 				"/>
				<polygon class="st24" points="446.8,258.1 445.6,257.7 416.8,266.8 417.9,267.2 				"/>
				<polygon class="st24" points="406.6,268.4 407.8,268.8 414.3,266.7 413.1,266.3 				"/>
				<polygon class="st24" points="444.2,257.3 443,256.9 414.2,266 415.3,266.4 				"/>
				<polygon class="st24" points="441.6,256.5 440.4,256.1 411.6,265.2 412.8,265.6 				"/>
				<polygon class="st24" points="404,267.6 405.2,268 411.7,265.9 410.6,265.5 				"/>
				<polygon class="st24" points="439.1,255.6 437.9,255.3 409.1,264.4 410.2,264.8 				"/>
				<polygon class="st24" points="401.5,266.8 402.7,267.1 409.2,265.1 408,264.7 				"/>
				<polygon class="st24" points="399,266 400.1,266.3 406.6,264.3 405.5,263.9 				"/>
				<polygon class="st24" points="436.5,254.8 435.3,254.5 406.5,263.6 407.7,264 				"/>
				<polygon class="st24" points="403.9,262.8 405.1,263.1 415.6,259.8 415.6,259.8 433.9,254 432.7,253.7 414.7,259.4 414.7,259.4 
									"/>
				<polygon class="st24" points="396.4,265.2 397.6,265.5 404,263.5 402.9,263.1 				"/>
				<polygon class="st24" points="393.8,264.4 395,264.7 401.5,262.7 400.3,262.3 				"/>
				<polygon class="st24" points="431.3,253.2 430.2,252.9 401.4,262 402.5,262.3 				"/>
				<polygon class="st24" points="391.4,263.5 392.5,263.9 398.9,261.9 397.8,261.5 				"/>
				<polygon class="st24" points="428.9,252.4 427.7,252 398.8,261.2 400,261.5 				"/>
				<polygon class="st24" points="365.6,255.4 366.8,255.8 373.2,253.7 372.1,253.4 				"/>
				<polygon class="st24" points="403.2,244.3 402,243.9 373.1,253 374.3,253.4 				"/>
				<polygon class="st24" points="400.6,243.5 399.4,243.1 370.6,252.2 371.7,252.6 				"/>
				<polygon class="st24" points="363,254.6 364.2,255 370.7,252.9 369.5,252.6 				"/>
			</g>
			<g>
				<polygon class="st8" points="402.1,246.7 403.6,246.2 416,250.1 414.4,250.6 				"/>
				<polygon class="st8" points="398.7,247.7 400.3,247.2 409.3,250.1 407.8,250.6 				"/>
				<polygon class="st8" points="395.3,248.8 396.8,248.3 403.6,250.5 402.1,251 				"/>
				<polygon class="st8" points="392.1,249.8 393.6,249.4 404.3,252.7 402.7,253.2 				"/>
				<polygon class="st8" points="388.7,250.9 390.3,250.4 394.9,251.9 393.3,252.3 				"/>
				<polygon class="st23" points="385.3,252 386.8,251.5 395.9,254.4 394.3,254.8 				"/>
				<polygon class="st23" points="382.1,253 383.6,252.5 390.4,254.6 388.8,255.1 				"/>
				<polygon class="st23" points="378.9,254 380.4,253.5 395.3,258.2 393.7,258.7 				"/>
				<polygon class="st23" points="375.5,255.1 377.1,254.6 387.8,258 386.3,258.5 				"/>
				<polygon class="st23" points="372.1,256.2 373.6,255.7 378.2,257.1 376.7,257.6 				"/>
				<polygon class="st4" points="369.9,256.8 406.2,245.4 405.7,245.2 369.4,256.7 				"/>
			</g>
			<polygon class="st8" points="418.4,253.2 419.6,253.5 426,251.5 424.9,251.1 			"/>
			<polygon class="st8" points="415.7,252.3 416.9,252.7 423.4,250.7 422.2,250.3 			"/>
		</g>
		<g>
			<path class="st6" d="M668,570.7c-9,0.6-11,5.3-4.5,8.2c5.9,2.6,12.5,5.8,20.3,6.9c8,1.1,13.8-0.4,13.8-0.4l1.1,2.5
				c0,0,10.6,2,14.8-1c1.6-3.3,0.9-10.6-2.8-13.8c-3.9-3.4-7.1-2.4-17.3-1.5C688.8,572.1,671.2,570.5,668,570.7z"/>
			<path class="st6" d="M715.8,557.8c-9,0.6-11,5.3-4.5,8.2c5.9,2.6,12.5,5.8,20.3,6.9c8,1.1,13.8-0.4,13.8-0.4l1.1,2.5
				c0,0,10.6,2,14.8-1c1.6-3.3,0.9-10.6-2.8-13.8c-3.9-3.4-7.1-2.4-17.3-1.5C736.6,559.2,719,557.6,715.8,557.8z"/>
			<path class="st4" d="M754.9,514.4c-11.6,1.9-23-1.6-35.7-3c0.7,2.2,1.6,7.7,3.6,11.7c6.1,12.3,8.1,31,11,38.7
				c4.1,2.6,23.3,4.4,24.5-0.9c2.7-12.3,6.5-27.5,0.6-39C757.2,518.3,756,516.2,754.9,514.4z"/>
			<path class="st16" d="M709.2,523.5c-10.9,2-19.3-6-30.4-7.9c-4.1,3.9-2.6,11.8-1.3,18.2c2.7,12.6,5.7,31,7.5,38.8
				c3.7,2.8,24.6,5,26.5-0.2c4.4-12.1,2.9-26.2,0.4-38.1C711.1,530.6,711,526.7,709.2,523.5z"/>
			<g>
				<path class="st3" d="M713.8,538.3v56.3c0,0.8,2,1.4,4.4,1.4c2.4,0,4.4-0.6,4.4-1.4v-56.3H713.8z"/>
				<path class="st3" d="M784.4,556.9v60.3c0,0.8,2,1.4,4.4,1.4s4.4-0.6,4.4-1.4v-60.3H784.4z"/>
				<path class="st3" d="M855.1,535.9v58.9c0,0.8,2,1.4,4.4,1.4c2.4,0,4.4-0.6,4.4-1.4v-58.9H855.1z"/>
			</g>
			<g>
				<polygon class="st8" points="870.4,542.5 788.9,568.2 707.4,542.4 788.9,516.7 				"/>
				<polygon class="st8" points="870.4,539 788.9,564.7 707.4,538.9 788.9,513.2 				"/>
				<polygon class="st19" points="707.4,538.9 707.4,542.4 788.9,568.2 788.9,564.7 				"/>
				<polygon class="st17" points="870.4,539 870.4,542.5 788.9,568.2 788.9,564.7 				"/>
			</g>
			<g>
				<path class="st5" d="M812.9,447.4c-12.4-4.3-25.2-1.1-27.8,0l-17.7,17.3c0,0-8.9-2.6-20-7.1c-4.8-2-4.9-2-10.1-3.8
					c-8.2,0.3-10.6,2.8-13.1,6.9c2.1,1.7,13.4,7.8,16,9.3c6.5,3.8,7.9,8.2,7.9,8.2l24.9,3.3c0,0,31.6,11.1,46.7-1.6
					C834.9,467.3,825.4,451.7,812.9,447.4z"/>
				<path class="st1" d="M677.5,469.9c-4.2,2.4-4,5-1.2,7.8c2.8,2.9,4.4,5.4,4.4,5.4l7.8-6.6L677.5,469.9z"/>
				<polygon class="st23" points="693.4,484.3 715.8,474.3 684,453.4 661.7,463.4 				"/>
				<polygon class="st9" points="698.2,482.2 720.6,472.2 688.9,451.3 666.5,461.3 				"/>
				<path class="st1" d="M727.5,452.5c-3.6-1.7-9.1-3.8-13.3-4.9c-8-2.1-13.9,1.3-18.7,3.6c-4.7,2.3-7.7,3.7-4.6,4.4
					c1.4,0.3,4.6-0.7,4.6-0.7s-2,2.5,0,3.9c2,1.4,3.8-1.8,5.1-2.6c1.4,0.1,10.2,1.4,15.8,0.9c1.1-0.1,9.3,0.4,10.2,0.4
					C726.9,457.1,725.5,453.1,727.5,452.5z"/>
				<g>
					<polygon class="st10" points="717.5,445.4 693.8,459.1 689.1,459.9 690.7,457.5 714.4,443.9 					"/>
					<path class="st25" d="M717.5,445.4c-0.3,0.2-1.3,0-2.2-0.4c-0.9-0.4-1.3-0.9-0.9-1.1c0.3-0.2,1.3,0,2.2,0.4
						C717.5,444.7,717.9,445.2,717.5,445.4z"/>
				</g>
				<path class="st1" d="M685.5,486.6c0,0-8.9-4.4-6.2-9.7c2.2-4.2,6.4-4.6,9.3-6.9c2.8-2.2,8.4-1.3,5.1,1.4c-3.3,2.7-4.9,3.4-3.3,6
					c1.6,2.6,4.4,7.3,4.4,7.3L685.5,486.6z"/>
				<path class="st4" d="M723.5,519.1c0.8-0.1,10.8,0.8,11.7,0.8c15.5,6.9,30.7,12.8,47.6,15.6c13.4,8.6,29,3.5,33.9,0.7
					c14.1-8,10.4-20.5,6.9-24.7c-1.2-1.5-10.3,2.4-18.1,0.6c-5.1-1.2-29.7-3.4-53.9-8.9c-3.8-0.9-25.4-1.4-28.2,0.8
					C716.3,509.6,719.3,512.5,723.5,519.1z"/>
				<path class="st16" d="M812.9,519.7c-0.6-19.4-43.6-1.6-51.7-2.9c-5.3-0.9-33.1-2.7-58.4-6.5c-8.4-1.3-19.3,1.3-24,5.3
					c-7.2,6.1,14.5,6.4,19.7,12.8c0.2,0.3,0.2,0.5,0.2,0.8c20.3,12.9,49.4,15.6,58.8,15.6c13.4,3.9,35.5,3.5,44.3-0.5
					C811.7,539.5,813.1,527.7,812.9,519.7z"/>
				<path class="st1" d="M757.4,420.3c6.9-2.5,15.4-2.2,22.6,0.2c6.9,2.3,9.7,5.2,10,8.2c0.1,1-0.3,5.4-1.2,6.6
					c-2.6,3.7-4.9,6.1-8.2,8.4c-4.3,2.9-15.7,5.9-23.2,4.6c-6.6-1.2-11.1-6.5-9.7-14.3C748.7,428.4,748.4,423.7,757.4,420.3z"/>
				<path class="st6" d="M774.9,455c19.2-5.1,25.2-10.5,38.6-4.1c8.3,4,9.7,20.2,8.5,26.9c-0.8,5.1,4,36,5,38.8
					c-6.4,4.4-29.8,9.5-47.2,9.4c-17.3-0.1-27.3-3-33.6-6.3c0-7.3,3.5-10.5,2.9-14.8c-1.8-12.5-5-22.6-5.8-30.4
					C742.3,464.1,752.5,461,774.9,455z"/>
				<path class="st1" d="M788.4,436.7c0,0,1.1,6,2.7,8.7c2.3,4,8.2,6.7,8.2,6.7s6.5,5.3-4.3,7.8c-10.7,2.5-23.5-2.6-23.5-2.6
					s-0.1-3.2-4.2-8.8C764.4,444.5,788.4,436.7,788.4,436.7z"/>
				<path class="st4" d="M744.4,419.7c0,0-2.5,7,12.4,10c2.6,4.2,12.5,6.8,12.5,6.8s-0.4,4,8.1,7.2c6.5,2.5,15,3.3,15,3.3
					s7.2-10.2,9-16.3c1.9-6.3-4.9-12.4-16.9-14.6c-7.5-1.4-14.6-1.2-23,0.2C753.8,417.4,744.4,419.7,744.4,419.7z"/>
				<path class="st1" d="M771.1,435.9c2.5,4.7-6.4,6.1-6.4,6.1l-5.1-5.1C759.7,436.9,768.3,430.6,771.1,435.9z"/>
				<path class="st5" d="M804,508.4c0,0-12.9,7.2-25,7.7c-12.1,0.5-16.7,0-16.7,0s7.9-3.3,17.1-4.2C788.4,511,804,508.4,804,508.4z"
					/>
				<path class="st6" d="M686.8,490.8l-6.1-7.7c0,0,1-2.1,5.6-3.5c4.6-1.4,11.4,0.3,13.9,3.2C702.8,485.8,686.8,490.8,686.8,490.8z"
					/>
				<path class="st6" d="M725.7,461.3l-8.1-3.5c0,0,3.1-7,10.8-7.4c5.5,1.3,6.7,2.7,9,3.4C728.6,455.9,725.7,461.3,725.7,461.3z"/>
				<path class="st5" d="M727.3,505.7c-1.8,0.3-6.2,1.4-12.7-1.6c-10.6-4.8-23.5-9.5-26-11.3c-4.6-3.3-5.6-5.7,2.1-8.9
					c9.9-4.2,22.2,0.1,33.8,5c6-8,18.4-22.4,21.4-24.2c11.8-7.1,18-5.8,23.7-1.9c5.2,3.4,8,11,8.3,17.6c0.3,6.6-1.6,11.7-7.9,13.3
					c-6.3,1.5-6.4,1.4-12.8,1.6C755.6,496.4,740.5,503.7,727.3,505.7z"/>
				<path class="st5" d="M798.9,450c4.1,0.8,9.3,5.3-0.4,9.5c-9.7,4.2-20,0.7-23.9-0.4c-3.9-1.1-9.1-1.5-9.1-1.5s1.8-3.2,11.4-3.2
					c5.8,0,14.5-0.9,17-2.8C796.6,449.5,796.6,449.5,798.9,450z"/>
				<path class="st1" d="M711.8,450.3c-0.4,0-4.5,0.7-7.7,1c-3.1,0.3-7.9,0.9-8.5,2.1c-0.6,1.2,1.3,1.4,3.7,1.2s5.6,1.3,9.6,0.3
					C713.1,454,711.8,450.3,711.8,450.3z"/>
			</g>
			<g>
				<path class="st19" d="M867.8,480.2l-5.7-1.7l0,0c-1.2-0.4-2.8-0.4-4.5,0.2l-67.9,21.4c-3.8,1.2-6.9,4.4-6.9,7.2v55.6l6,1.8
					l75.7-27.6l1.8-53.5L867.8,480.2z"/>
				<path class="st17" d="M870.5,539v-55.6c0-2.8-3.1-4.1-6.9-2.9l-67.9,21.4c-3.8,1.2-6.9,4.4-6.9,7.2v55.6L870.5,539z"/>
			</g>
		</g>
		<g>
			<path class="st26" d="M130.2,381.9c0,0,11.7-4,16.7-4c5,0,11.7,2.5,11.3,6c-0.4,3.4-14,10.7-14,10.7L130.2,381.9z"/>
			<g>
				<g>
					<path class="st7" d="M173.8,486.6c6.4,1.4,8.2,2.6,6.5,4.9c-2.5,3.3-9,5.3-14.7,6c-8.6,1-15,7.5-24.2,2.3
						c-2.4-1.3-0.3-4.8,0.5-6.7c-0.2-1.3,4-5.3,3.7-8.8c9.1,1.9,10.1,0.7,12.5,1.6c-0.4,1.2-0.8,2.4-1.4,3.5
						C160,488.9,169.5,485.6,173.8,486.6z"/>
				</g>
				<path class="st16" d="M141.9,492.5c0,0,5.4,1.1,8.8,1.7c3.5,0.6,11.8,0.8,18.1-2.5c4.9-2.6-2.7-4.4-2.7-4.4s6.8-4.2,14.8-2.4
					c3.7,0.8,5.9,5.3,3.8,7.3c-2.3,2.1-6.9,4.4-10.5,4.9c-3.6,0.5-10.7,1.8-13.4,2.7c-5,1.6-13.5,4.5-19.2,1.5
					C135.9,498.1,141.9,492.5,141.9,492.5z"/>
			</g>
			<path class="st7" d="M148,429.8c9.5,1.3,4.5-3.8,14.4-2.1c10,1.7,10,9.4,7.8,10.7c-2.1,10.8-7.8,38.2-12.3,48.4
				c-4.4,1-11,2.9-13.1,1c-0.8-5.1-8.6-28.4-9.1-32.3C133.7,441.7,141.2,435.1,148,429.8z"/>
			<g>
				<g>
					<path class="st7" d="M203.1,495.1c6.4,1.4,8.2,2.6,6.5,4.9c-2.5,3.3-9,5.3-14.7,6c-8.6,1-15,7.5-24.2,2.3
						c-2.4-1.3-0.3-4.8,0.5-6.7c-0.2-1.3,4-5.3,3.7-8.8c9.1,1.9,10.1,0.7,12.5,1.6c-0.4,1.2-0.8,2.4-1.4,3.5
						C189.3,497.5,198.9,494.2,203.1,495.1z"/>
				</g>
				<path class="st16" d="M171.2,501c0,0,5.4,1.1,8.8,1.7c3.5,0.6,11.8,0.8,18.1-2.5c4.9-2.6-2.7-4.4-2.7-4.4s6.8-4.2,14.8-2.4
					c3.7,0.8,5.9,5.3,3.8,7.3c-2.3,2.1-6.9,4.4-10.5,4.9c-3.6,0.5-10.7,1.8-13.4,2.7c-5,1.6-13.5,4.5-19.2,1.5
					C165.2,506.7,171.2,501,171.2,501z"/>
			</g>
			<path class="st7" d="M177.3,438.4c9.5,1.3,4.5-3.8,14.4-2.1c10,1.7,10,9.4,7.8,10.7c-2.1,10.8-7.8,38.2-12.3,48.4
				c-4.4,1-11,2.9-13.1,1c-0.8-5.1-8.6-28.4-9.1-32.3C163,450.3,170.5,443.6,177.3,438.4z"/>
			<g>
				<path class="st3" d="M177.3,466.5v56.3c0,0.8-2,1.4-4.4,1.4c-2.4,0-4.4-0.6-4.4-1.4v-56.3H177.3z"/>
				<path class="st3" d="M106.7,485.1v60.3c0,0.8-2,1.4-4.4,1.4c-2.4,0-4.4-0.6-4.4-1.4v-60.3H106.7z"/>
				<path class="st3" d="M36.1,463.8v58.9c0,0.8-2,1.4-4.4,1.4s-4.4-0.6-4.4-1.4v-58.9H36.1z"/>
			</g>
			<g>
				<polygon class="st8" points="20.7,470.7 102.2,496.4 183.7,470.6 102.2,444.9 				"/>
				<polygon class="st8" points="20.7,467.2 102.2,492.9 183.7,467.1 102.2,441.4 				"/>
				<polygon class="st19" points="183.7,467.1 183.7,470.6 102.2,496.4 102.2,492.9 				"/>
				<polygon class="st17" points="20.7,467.2 20.7,470.7 102.2,496.4 102.2,492.9 				"/>
			</g>
			<g>
				<polygon class="st23" points="190.3,403 167.9,393 199.7,372.1 222.1,382.1 				"/>
				<polygon class="st9" points="185.5,400.8 163.1,390.8 194.9,370 217.3,380 				"/>
			</g>
			<g>
				<path class="st26" d="M88.2,372.9c0,0-4.5,0.2-11.2,6.7c-6.6,6.6-9.1,17.2,4.9,20.1c14,2.9,15.9-24.5,15.9-24.5L88.2,372.9z"/>
				<path class="st10" d="M114.7,454.6c-4.9,4.1-3.8,7.5-4,11.9c-13.5-0.5-26.7-0.3-38-3.9c-23.4-7.4-6.5-25.5,7.2-36.9
					c9.5,7,29.5,12.1,46,11.3c-0.5,3.8-2,7.6-3.2,9.7C121.1,449.8,117.8,452,114.7,454.6z"/>
				<path class="st4" d="M84.6,455.3c3.4-10,7.8-17.1,8.1-19.5c0.2-1.7,14.4-8,29.1-10.2c22.6-3.4,44-3.7,70,10.6
					c8.1,4.4,1.6,10.9-10.7,17.2c-12.4,6.5-36.6,11.2-43,12.1c-4.8,2.9-15.8,6.6-27.9,6.6C92.5,472.1,82.6,461,84.6,455.3z"/>
				<path class="st1" d="M216.3,390.5c1-1.8,1-3.6-1.2-3.7c-4.7,2.4-14.2,10.5-16.6,7.1c-0.6-0.9,1.1-2.2,1.8-3.3
					c0.4-0.6-0.2-2.2-2.4-1c-2.9,1.4-3.6,2.8-4.6,4.8c-0.6,1.3-0.8,2.6-0.6,3.9c0.1,1.7,0.2,3.5-1.8,4.7c-1,0.6,2.7,3.7,5.9,3.1
					c4.5-0.9,9.7-3.5,13.1-5.2c3.4-1.8,4.2-2.5,6-5C217.7,393.2,217.8,392.7,216.3,390.5z"/>
				<path class="st1" d="M91,380.2c0.1-0.4,0.8-0.8,1.5-1c11.1-2.2,13.3-5.7,14.5-11.4c0.2-0.8,2-1.3,3.3-0.9
					c6.3,1.8,12.7,3,19.7,3.7c-4.9,10.7,7,12.4,12.6,16.3c1.4,1-11,6.8-18.1,6.5c-6.1-0.2-12.3-1-17.8-2.6
					C100.6,389.1,90,384.5,91,380.2z"/>
				<path class="st1" d="M100.8,355.8c0.3-5.4,7.3-12.9,18.3-12.9c11.2,0,26.4,6,27.8,10.2c2.5,7.1-3,23.4-24.3,20
					C106,370.4,100.3,363.8,100.8,355.8z"/>
				<path class="st10" d="M150.7,397.4c0.5-4.6-5.5-10.9-14.2-13.6c-8.8-0.8-17.6,3.6-27.6-0.2c-7.1-2.7-7.2-6.3-8.5-6.8
					c-9.4-3.3-14-0.5-18,3.2c-9.3,8.7-5.5,18.5-0.1,27.5c4,6.6-6.2,19.3-11.6,24.9c3.2,3.9,11.5,7.9,22.2,9.9
					c9.2,1.7,39.7,3.5,46.1-3.6c-2.3-6.8-2.8-11.3-2.3-14.6c0.6-4.1,2.7-6.1,4.9-7.7c2.4-1.8,12.6-5.4,13.3-8.5
					C155.6,404.3,150.3,401.1,150.7,397.4z"/>
				<path class="st26" d="M95.9,374.3c0,0-2.5,3.5,1,6.7s9.8,4.8,17.4,4.9c7.7,0.1,23.7-1.7,23.7-1.7s0.5-2.5-4.3-3.3
					c-4.8-0.8-19.1,1.3-25.2-0.4c-6.1-1.7-6.1-3.9-8.4-5.6C97.8,373.1,95.9,374.3,95.9,374.3z"/>
				<path class="st26" d="M187,403.7c-5.7,0.8-12.6,6.4-16.6,9c-4-6.4-12-11.4-15.6-11.7c-0.4-4.2-2.4-10.8-7.6-12.9
					c-3.6-1.4-6.8-3.2-13.3-2.3c-9.2,1.2-11.6,6.2-12.4,11.4c-1,6.8,9.2,14.6,17.1,14.3c1.5,6.6,21.9,10.9,28,13.1
					c1.7,0.6,2.5,1.1,6.8,0.1c2.9-0.6,3.2-0.4,8.3-1.9c7-2.1,14.8-10.5,17.6-14.3C201.3,405.5,194.3,402.7,187,403.7z"/>
				<path class="st10" d="M187,403.7l4.9-3.4c0,0,2.4-0.8,7.4,1.4c5.1,2.2,3.8,3.2,3.8,3.2l-3.9,3.7c0,0-1.6-2.1-4.8-3.2
					C191.1,404.1,187,403.7,187,403.7z"/>
			</g>
			<g>
				<path class="st19" d="M23.3,408.4l5.7-1.7l0,0c1.2-0.4,2.8-0.4,4.5,0.2l67.8,21.4c3.8,1.2,6.9,4.4,6.9,7.2v55.6l-6,1.8
					l-75.7-27.6l-1.8-53.5L23.3,408.4z"/>
				<path class="st17" d="M20.7,467.2v-55.6c0-2.8,3.1-4.1,6.9-2.9l67.9,21.4c3.8,1.2,6.9,4.4,6.9,7.2v55.6L20.7,467.2z"/>
			</g>
			<path class="st1" d="M158,377.2c-1.3-0.7-3.5-1.5-5.2-2.1c3.2-1.5,8.1-3.4,11.9-4.4c7.1-1.8,12.4,1.2,16.7,3.2
				c4.2,2,6.9,3.3,4.1,3.9c-1.3,0.3-4.1-0.6-4.1-0.6s1.8,2.3,0,3.5c-1.8,1.3-3.4-1.6-4.6-2.3c-1.3,0.1-6.4,1.1-11.5,0.7
				c-1-0.1-4,0.1-4.8,0.1C160.2,379,159.5,378,158,377.2z"/>
			<g>
				<polygon class="st10" points="164,370.1 183.2,381.1 187,381.8 185.6,379.8 166.5,368.8 				"/>
				<path class="st25" d="M164,370.1c0.3,0.2,1.1,0,1.8-0.3c0.7-0.3,1-0.8,0.8-0.9c-0.3-0.2-1.1,0-1.8,0.3
					C164.1,369.5,163.7,369.9,164,370.1z"/>
			</g>
			<path class="st1" d="M168.6,374c0.3,0,3.7,0.6,6.2,0.8c2.5,0.2,6.4,0.7,6.9,1.7c0.5,1-1,1.1-3,1c-2-0.1-4.5,1-7.8,0.3
				C167.6,377,168.6,374,168.6,374z"/>
			<path class="st10" d="M147,377.9l5.5-3.1c0,0,2.5-0.7,7.2,1.8c4.6,2.4,3.2,3.3,3.2,3.3l-4.6,3.5c0,0-1.2-2.1-4.2-3.5
				C151,378.5,147,377.9,147,377.9z"/>
			<g>
				<path class="st16" d="M153.2,348.3c-1.5-5.4-12.6-8.3-20.4-6c-8.3-6.5-25.7-4.2-34.2,1.1c-4.8,3-7.1,7-6.4,11
					c1,5.9,17.1,9.2,15.2,16.2c10.4-1.1,23.2-2.8,29.1-8c1.6-1.4,2.5-3.2,2.5-5c2.6-0.1,5.3-0.5,7.4-1.2
					C151.6,354.7,154.2,351.5,153.2,348.3z"/>
				<path class="st8" d="M92.2,353.7c0,0,1.8,6.3,14.1,3.4c12.3-3,8-17.1-4.5-14.1C89.3,345.8,92.2,353.7,92.2,353.7z"/>
				<path class="st4" d="M101.8,344.1c0,0,1.5-9.4-14.3-8.4c-12.2,0.8-7.9,7.5-7.9,7.5s-10,3-6.8,8.6c3.2,5.6,29,7.7,32.8,0.2
					C108.4,346.2,101.8,344.1,101.8,344.1z"/>
			</g>
		</g>
		<g>
			<g>
				<path class="st27" d="M856,402.3c0-0.8-0.9-1.7-1.9-2c-0.5-0.1-0.9-0.2-1.2-0.1l0,0l-28.5,8.9l2.6,2.9l28.2-8.9l0,0
					C855.7,403,856,402.7,856,402.3z"/>
				<path class="st20" d="M827.7,411.2c0,0.8-0.9,1.1-1.9,0.8c-1.1-0.3-1.9-1.2-1.9-2c0-0.8,0.9-1.1,1.9-0.8
					C826.8,409.5,827.7,410.4,827.7,411.2z"/>
			</g>
			<g>
				<path class="st27" d="M891.3,391.2c0-0.8-0.9-1.7-1.9-2c-0.5-0.1-0.9-0.2-1.2-0.1l0,0l-28.5,8.9l2.6,2.9l28.2-8.9l0,0
					C891,391.9,891.3,391.6,891.3,391.2z"/>
				<path class="st20" d="M862.9,400.1c0,0.8-0.9,1.1-1.9,0.8c-1.1-0.3-1.9-1.2-1.9-2s0.9-1.1,1.9-0.8
					C862.1,398.4,862.9,399.3,862.9,400.1z"/>
			</g>
			<g>
				<g>
					<path class="st20" d="M949.7,408.2C949.7,408.2,949.7,408.2,949.7,408.2c0,0,0-1.8,0-1.8s-3.3-0.5-3.3-0.4c0,0,0,0.1,0,0.2
						l-44.1-13.9c-3-0.9-7.5-1-10.1-0.2l-63.3,20c-1-0.1-2.7-0.1-2.7-0.1v1.8l0,0c0,0.6,0.8,1.3,2.5,1.8l44.9,14.2
						c3,0.9,7.5,1,10.1,0.2l64.2-20.3C949.2,409.2,949.7,408.7,949.7,408.2z"/>
					<path class="st18" d="M883.7,428.1c-2.6,0.8-7.1,0.7-10.1-0.2l-44.9-14.2c-3-0.9-3.3-2.4-0.7-3.2l64.2-20.3
						c2.6-0.8,7.1-0.7,10.1,0.2l44.9,14.2c3,0.9,3.3,2.4,0.7,3.2L883.7,428.1z"/>
					<path class="st28" d="M947.3,407.7L883.1,428c-2.3,0.7-6.4,0.6-9-0.2l-44.9-14.2c-2.7-0.8-2.9-2.1-0.6-2.8l64.2-20.3
						c2.3-0.7,6.4-0.6,9,0.2l44.9,14.2C949.3,405.7,949.6,407,947.3,407.7z"/>
				</g>
				<g>
					<path class="st2" d="M843.4,413.8l-2,0.6c-0.6,0.2-1.7,0.2-2.5-0.1l-2.3-0.7c-0.7-0.2-0.8-0.6-0.2-0.8l2-0.6
						c0.6-0.2,1.7-0.2,2.5,0.1l2.3,0.7C844,413.2,844.1,413.6,843.4,413.8z"/>
					<path class="st2" d="M849,412l-2,0.6c-0.6,0.2-1.7,0.2-2.5-0.1l-2.3-0.7c-0.7-0.2-0.8-0.6-0.2-0.8l2-0.6
						c0.6-0.2,1.7-0.2,2.5,0.1l2.3,0.7C849.6,411.4,849.7,411.8,849,412z"/>
					<path class="st2" d="M854.6,410.2l-2,0.6c-0.6,0.2-1.7,0.2-2.5-0.1l-2.3-0.7c-0.7-0.2-0.8-0.6-0.2-0.8l2-0.6
						c0.6-0.2,1.7-0.2,2.5,0.1l2.3,0.7C855.2,409.7,855.3,410,854.6,410.2z"/>
					<path class="st2" d="M860.2,408.5l-2,0.6c-0.6,0.2-1.7,0.2-2.5-0.1l-2.3-0.7c-0.7-0.2-0.8-0.6-0.2-0.8l2-0.6
						c0.6-0.2,1.7-0.2,2.5,0.1l2.3,0.7C860.8,407.9,860.9,408.3,860.2,408.5z"/>
				</g>
				<g>
					<path class="st2" d="M865.8,406.7l-2,0.6c-0.6,0.2-1.7,0.2-2.5-0.1l-2.3-0.7c-0.7-0.2-0.8-0.6-0.2-0.8l2-0.6
						c0.6-0.2,1.7-0.2,2.5,0.1l2.3,0.7C866.4,406.1,866.5,406.5,865.8,406.7z"/>
					<path class="st2" d="M871.4,404.9l-2,0.6c-0.6,0.2-1.7,0.2-2.5-0.1l-2.3-0.7c-0.7-0.2-0.8-0.6-0.2-0.8l2-0.6
						c0.6-0.2,1.7-0.2,2.5,0.1l2.3,0.7C872,404.4,872.1,404.7,871.4,404.9z"/>
					<path class="st2" d="M877,403.2l-2,0.6c-0.6,0.2-1.7,0.2-2.5-0.1l-2.3-0.7c-0.7-0.2-0.8-0.6-0.2-0.8l2-0.6
						c0.6-0.2,1.7-0.2,2.5,0.1l2.3,0.7C877.6,402.6,877.7,403,877,403.2z"/>
					<path class="st2" d="M882.6,401.4l-2,0.6c-0.6,0.2-1.7,0.2-2.5-0.1l-2.3-0.7c-0.7-0.2-0.8-0.6-0.2-0.8l2-0.6
						c0.6-0.2,1.7-0.2,2.5,0.1l2.3,0.7C883.2,400.8,883.3,401.2,882.6,401.4z"/>
				</g>
				<g>
					<g>
						<path class="st2" d="M849.6,415.7l-2,0.6c-0.6,0.2-1.7,0.2-2.5-0.1l-2.3-0.7c-0.7-0.2-0.8-0.6-0.2-0.8l2-0.6
							c0.6-0.2,1.7-0.2,2.5,0.1l2.3,0.7C850.2,415.2,850.2,415.5,849.6,415.7z"/>
						<path class="st2" d="M855.2,413.9l-2,0.6c-0.6,0.2-1.7,0.2-2.5-0.1l-2.3-0.7c-0.7-0.2-0.8-0.6-0.2-0.8l2-0.6
							c0.6-0.2,1.7-0.2,2.5,0.1l2.3,0.7C855.8,413.4,855.8,413.7,855.2,413.9z"/>
						<path class="st2" d="M860.8,412.2l-2,0.6c-0.6,0.2-1.7,0.2-2.5-0.1l-2.3-0.7c-0.7-0.2-0.8-0.6-0.2-0.8l2-0.6
							c0.6-0.2,1.7-0.2,2.5,0.1l2.3,0.7C861.4,411.6,861.4,412,860.8,412.2z"/>
						<path class="st2" d="M866.4,410.4l-2,0.6c-0.6,0.2-1.7,0.2-2.5-0.1l-2.3-0.7c-0.7-0.2-0.8-0.6-0.2-0.8l2-0.6
							c0.6-0.2,1.7-0.2,2.5,0.1l2.3,0.7C867,409.9,867,410.2,866.4,410.4z"/>
					</g>
					<g>
						<path class="st2" d="M872,408.6l-2,0.6c-0.6,0.2-1.7,0.2-2.5-0.1l-2.3-0.7c-0.7-0.2-0.8-0.6-0.2-0.8l2-0.6
							c0.6-0.2,1.7-0.2,2.5,0.1l2.3,0.7C872.6,408.1,872.6,408.4,872,408.6z"/>
						<path class="st2" d="M877.6,406.9l-2,0.6c-0.6,0.2-1.7,0.2-2.5-0.1l-2.3-0.7c-0.7-0.2-0.8-0.6-0.2-0.8l2-0.6
							c0.6-0.2,1.7-0.2,2.5,0.1l2.3,0.7C878.2,406.3,878.2,406.7,877.6,406.9z"/>
						<path class="st2" d="M883.2,405.1l-2,0.6c-0.6,0.2-1.7,0.2-2.5-0.1l-2.3-0.7c-0.7-0.2-0.8-0.6-0.2-0.8l2-0.6
							c0.6-0.2,1.7-0.2,2.5,0.1l2.3,0.7C883.8,404.6,883.8,404.9,883.2,405.1z"/>
						<path class="st2" d="M888.8,403.3l-2,0.6c-0.6,0.2-1.7,0.2-2.5-0.1l-2.3-0.7c-0.7-0.2-0.8-0.6-0.2-0.8l2-0.6
							c0.6-0.2,1.7-0.2,2.5,0.1l2.3,0.7C889.4,402.8,889.4,403.1,888.8,403.3z"/>
					</g>
					<g>
						<path class="st2" d="M894.4,401.6l-2,0.6c-0.6,0.2-1.7,0.2-2.5-0.1l-2.3-0.7c-0.7-0.2-0.8-0.6-0.2-0.8l2-0.6
							c0.6-0.2,1.7-0.2,2.5,0.1l2.3,0.7C895,401,895,401.4,894.4,401.6z"/>
						<path class="st2" d="M900,399.8l-2,0.6c-0.6,0.2-1.7,0.2-2.5-0.1l-2.3-0.7c-0.7-0.2-0.8-0.6-0.2-0.8l2-0.6
							c0.6-0.2,1.7-0.2,2.5,0.1l2.3,0.7C900.6,399.3,900.6,399.6,900,399.8z"/>
						<path class="st2" d="M905.6,398l-2,0.6c-0.6,0.2-1.7,0.2-2.5-0.1l-2.3-0.7c-0.7-0.2-0.8-0.6-0.2-0.8l2-0.6
							c0.6-0.2,1.7-0.2,2.5,0.1l2.3,0.7C906.1,397.5,906.2,397.8,905.6,398z"/>
						<path class="st2" d="M911.2,396.3l-2,0.6c-0.6,0.2-1.7,0.2-2.5-0.1l-2.3-0.7c-0.7-0.2-0.8-0.6-0.2-0.8l2-0.6
							c0.6-0.2,1.7-0.2,2.5,0.1l2.3,0.7C911.7,395.7,911.8,396.1,911.2,396.3z"/>
					</g>
				</g>
				<g>
					<g>
						<path class="st2" d="M855.8,417.7l-2,0.6c-0.6,0.2-1.7,0.2-2.5-0.1l-2.3-0.7c-0.7-0.2-0.8-0.6-0.2-0.8l2-0.6
							c0.6-0.2,1.7-0.2,2.5,0.1l2.3,0.7C856.3,417.1,856.4,417.5,855.8,417.7z"/>
						<path class="st2" d="M861.4,415.9l-2,0.6c-0.6,0.2-1.7,0.2-2.5-0.1l-2.3-0.7c-0.7-0.2-0.8-0.6-0.2-0.8l2-0.6
							c0.6-0.2,1.7-0.2,2.5,0.1l2.3,0.7C861.9,415.3,862,415.7,861.4,415.9z"/>
						<path class="st2" d="M867,414.1l-2,0.6c-0.6,0.2-1.7,0.2-2.5-0.1l-2.3-0.7c-0.7-0.2-0.8-0.6-0.2-0.8l2-0.6
							c0.6-0.2,1.7-0.2,2.5,0.1l2.3,0.7C867.5,413.6,867.6,413.9,867,414.1z"/>
						<path class="st2" d="M872.6,412.4l-2,0.6c-0.6,0.2-1.7,0.2-2.5-0.1l-2.3-0.7c-0.7-0.2-0.8-0.6-0.2-0.8l2-0.6
							c0.6-0.2,1.7-0.2,2.5,0.1l2.3,0.7C873.1,411.8,873.2,412.2,872.6,412.4z"/>
					</g>
					<g>
						<path class="st2" d="M878.2,410.6l-2,0.6c-0.6,0.2-1.7,0.2-2.5-0.1l-2.3-0.7c-0.7-0.2-0.8-0.6-0.2-0.8l2-0.6
							c0.6-0.2,1.7-0.2,2.5,0.1l2.3,0.7C878.7,410,878.8,410.4,878.2,410.6z"/>
						<path class="st2" d="M883.8,408.8l-2,0.6c-0.6,0.2-1.7,0.2-2.5-0.1l-2.3-0.7c-0.7-0.2-0.8-0.6-0.2-0.8l2-0.6
							c0.6-0.2,1.7-0.2,2.5,0.1l2.3,0.7C884.3,408.3,884.4,408.6,883.8,408.8z"/>
						<path class="st2" d="M889.4,407.1l-2,0.6c-0.6,0.2-1.7,0.2-2.5-0.1l-2.3-0.7c-0.7-0.2-0.8-0.6-0.2-0.8l2-0.6
							c0.6-0.2,1.7-0.2,2.5,0.1l2.3,0.7C889.9,406.5,890,406.9,889.4,407.1z"/>
						<path class="st2" d="M900.6,403.5l-7.6,2.4c-0.6,0.2-1.7,0.2-2.5-0.1l-2.3-0.7c-0.7-0.2-0.8-0.6-0.2-0.8l7.6-2.4
							c0.6-0.2,1.7-0.2,2.5,0.1l2.3,0.7C901.1,403,901.2,403.3,900.6,403.5z"/>
					</g>
					<g>
						<path class="st2" d="M906.2,401.8l-2,0.6c-0.6,0.2-1.7,0.2-2.5-0.1l-2.3-0.7c-0.7-0.2-0.8-0.6-0.2-0.8l2-0.6
							c0.6-0.2,1.7-0.2,2.5,0.1l2.3,0.7C906.7,401.2,906.8,401.6,906.2,401.8z"/>
						<path class="st2" d="M911.8,400l-2,0.6c-0.6,0.2-1.7,0.2-2.5-0.1l-2.3-0.7c-0.7-0.2-0.8-0.6-0.2-0.8l2-0.6
							c0.6-0.2,1.7-0.2,2.5,0.1l2.3,0.7C912.3,399.4,912.4,399.8,911.8,400z"/>
						<path class="st2" d="M917.4,398.2l-2,0.6c-0.6,0.2-1.7,0.2-2.5-0.1l-2.3-0.7c-0.7-0.2-0.8-0.6-0.2-0.8l2-0.6
							c0.6-0.2,1.7-0.2,2.5,0.1l2.3,0.7C917.9,397.7,918,398,917.4,398.2z"/>
					</g>
				</g>
				<g>
					<g>
						<path class="st2" d="M862,419.6l-2,0.6c-0.6,0.2-1.7,0.2-2.5-0.1l-2.3-0.7c-0.7-0.2-0.8-0.6-0.2-0.8l2-0.6
							c0.6-0.2,1.7-0.2,2.5,0.1l2.3,0.7C862.5,419.1,862.6,419.4,862,419.6z"/>
						<path class="st2" d="M867.6,417.8l-2,0.6c-0.6,0.2-1.7,0.2-2.5-0.1l-2.3-0.7c-0.7-0.2-0.8-0.6-0.2-0.8l2-0.6
							c0.6-0.2,1.7-0.2,2.5,0.1l2.3,0.7C868.1,417.3,868.2,417.6,867.6,417.8z"/>
						<path class="st2" d="M873.2,416.1l-2,0.6c-0.6,0.2-1.7,0.2-2.5-0.1l-2.3-0.7c-0.7-0.2-0.8-0.6-0.2-0.8l2-0.6
							c0.6-0.2,1.7-0.2,2.5,0.1l2.3,0.7C873.7,415.5,873.8,415.9,873.2,416.1z"/>
						<path class="st2" d="M878.8,414.3l-2,0.6c-0.6,0.2-1.7,0.2-2.5-0.1l-2.3-0.7c-0.7-0.2-0.8-0.6-0.2-0.8l2-0.6
							c0.6-0.2,1.7-0.2,2.5,0.1l2.3,0.7C879.3,413.8,879.4,414.1,878.8,414.3z"/>
					</g>
					<g>
						<path class="st2" d="M884.4,412.5l-2,0.6c-0.6,0.2-1.7,0.2-2.5-0.1l-2.3-0.7c-0.7-0.2-0.8-0.6-0.2-0.8l2-0.6
							c0.6-0.2,1.7-0.2,2.5,0.1l2.3,0.7C884.9,412,885,412.3,884.4,412.5z"/>
						<path class="st2" d="M890,410.8l-2,0.6c-0.6,0.2-1.7,0.2-2.5-0.1l-2.3-0.7c-0.7-0.2-0.8-0.6-0.2-0.8l2-0.6
							c0.6-0.2,1.7-0.2,2.5,0.1l2.3,0.7C890.5,410.2,890.6,410.6,890,410.8z"/>
						<path class="st2" d="M895.6,409l-2,0.6c-0.6,0.2-1.7,0.2-2.5-0.1l-2.3-0.7c-0.7-0.2-0.8-0.6-0.2-0.8l2-0.6
							c0.6-0.2,1.7-0.2,2.5,0.1l2.3,0.7C896.1,408.5,896.2,408.8,895.6,409z"/>
						<path class="st2" d="M901.2,407.2l-2,0.6c-0.6,0.2-1.7,0.2-2.5-0.1l-2.3-0.7c-0.7-0.2-0.8-0.6-0.2-0.8l2-0.6
							c0.6-0.2,1.7-0.2,2.5,0.1l2.3,0.7C901.7,406.7,901.8,407,901.2,407.2z"/>
					</g>
					<g>
						<path class="st2" d="M906.8,405.5l-2,0.6c-0.6,0.2-1.7,0.2-2.5-0.1l-2.3-0.7c-0.7-0.2-0.8-0.6-0.2-0.8l2-0.6
							c0.6-0.2,1.7-0.2,2.5,0.1l2.3,0.7C907.3,404.9,907.4,405.3,906.8,405.5z"/>
						<path class="st2" d="M912.4,403.7l-2,0.6c-0.6,0.2-1.7,0.2-2.5-0.1l-2.3-0.7c-0.7-0.2-0.8-0.6-0.2-0.8l2-0.6
							c0.6-0.2,1.7-0.2,2.5,0.1l2.3,0.7C912.9,403.2,913,403.5,912.4,403.7z"/>
						<path class="st2" d="M918,401.9l-2,0.6c-0.6,0.2-1.7,0.2-2.5-0.1l-2.3-0.7c-0.7-0.2-0.8-0.6-0.2-0.8l2-0.6
							c0.6-0.2,1.7-0.2,2.5,0.1l2.3,0.7C918.5,401.4,918.6,401.7,918,401.9z"/>
						<path class="st2" d="M923.5,400.2l-2,0.6c-0.6,0.2-1.7,0.2-2.5-0.1l-2.3-0.7c-0.7-0.2-0.8-0.6-0.2-0.8l2-0.6
							c0.6-0.2,1.7-0.2,2.5,0.1l2.3,0.7C924.1,399.6,924.2,400,923.5,400.2z"/>
					</g>
				</g>
				<g>
					<g>
						<path class="st2" d="M868.1,421.6l-2,0.6c-0.6,0.2-1.7,0.2-2.5-0.1l-2.3-0.7c-0.7-0.2-0.8-0.6-0.2-0.8l2-0.6
							c0.6-0.2,1.7-0.2,2.5,0.1l2.3,0.7C868.7,421,868.8,421.4,868.1,421.6z"/>
						<path class="st2" d="M873.7,419.8l-2,0.6c-0.6,0.2-1.7,0.2-2.5-0.1l-2.3-0.7c-0.7-0.2-0.8-0.6-0.2-0.8l2-0.6
							c0.6-0.2,1.7-0.2,2.5,0.1l2.3,0.7C874.3,419.2,874.4,419.6,873.7,419.8z"/>
						<path class="st2" d="M879.3,418l-2,0.6c-0.6,0.2-1.7,0.2-2.5-0.1l-2.3-0.7c-0.7-0.2-0.8-0.6-0.2-0.8l2-0.6
							c0.6-0.2,1.7-0.2,2.5,0.1l2.3,0.7C879.9,417.5,880,417.8,879.3,418z"/>
						<path class="st2" d="M901.7,411l-18.8,5.9c-0.6,0.2-1.7,0.2-2.5-0.1l-2.3-0.7c-0.7-0.2-0.8-0.6-0.2-0.8l18.8-5.9
							c0.6-0.2,1.7-0.2,2.5,0.1l2.3,0.7C902.3,410.4,902.4,410.8,901.7,411z"/>
					</g>
					<g>
						<path class="st2" d="M907.3,409.2l-2,0.6c-0.6,0.2-1.7,0.2-2.5-0.1l-2.3-0.7c-0.7-0.2-0.8-0.6-0.2-0.8l2-0.6
							c0.6-0.2,1.7-0.2,2.5,0.1l2.3,0.7C907.9,408.6,908,409,907.3,409.2z"/>
					</g>
					<g>
						<path class="st2" d="M912.9,407.4l-2,0.6c-0.6,0.2-1.7,0.2-2.5-0.1l-2.3-0.7c-0.7-0.2-0.8-0.6-0.2-0.8l2-0.6
							c0.6-0.2,1.7-0.2,2.5,0.1l2.3,0.7C913.5,406.9,913.6,407.2,912.9,407.4z"/>
						<path class="st2" d="M918.5,405.7l-2,0.6c-0.6,0.2-1.7,0.2-2.5-0.1l-2.3-0.7c-0.7-0.2-0.8-0.6-0.2-0.8l2-0.6
							c0.6-0.2,1.7-0.2,2.5,0.1l2.3,0.7C919.1,405.1,919.2,405.5,918.5,405.7z"/>
						<path class="st2" d="M924.1,403.9l-2,0.6c-0.6,0.2-1.7,0.2-2.5-0.1l-2.3-0.7c-0.7-0.2-0.8-0.6-0.2-0.8l2-0.6
							c0.6-0.2,1.7-0.2,2.5,0.1l2.3,0.7C924.7,403.3,924.8,403.7,924.1,403.9z"/>
						<path class="st2" d="M929.7,402.1l-2,0.6c-0.6,0.2-1.7,0.2-2.5-0.1L923,402c-0.7-0.2-0.8-0.6-0.2-0.8l2-0.6
							c0.6-0.2,1.7-0.2,2.5,0.1l2.3,0.7C930.3,401.6,930.4,401.9,929.7,402.1z"/>
					</g>
				</g>
				<g>
					<path class="st2" d="M888.2,399.6l-2,0.6c-0.6,0.2-1.7,0.2-2.5-0.1l-2.3-0.7c-0.7-0.2-0.8-0.6-0.2-0.8l2-0.6
						c0.6-0.2,1.7-0.2,2.5,0.1l2.3,0.7C888.8,399.1,888.9,399.4,888.2,399.6z"/>
					<path class="st2" d="M893.8,397.9l-2,0.6c-0.6,0.2-1.7,0.2-2.5-0.1l-2.3-0.7c-0.7-0.2-0.8-0.6-0.2-0.8l2-0.6
						c0.6-0.2,1.7-0.2,2.5,0.1l2.3,0.7C894.4,397.3,894.5,397.7,893.8,397.9z"/>
					<path class="st2" d="M899.4,396.1l-2,0.6c-0.6,0.2-1.7,0.2-2.5-0.1l-2.3-0.7c-0.7-0.2-0.8-0.6-0.2-0.8l2-0.6
						c0.6-0.2,1.7-0.2,2.5,0.1l2.3,0.7C900,395.5,900.1,395.9,899.4,396.1z"/>
					<path class="st2" d="M905,394.3l-2,0.6c-0.6,0.2-1.7,0.2-2.5-0.1l-2.3-0.7c-0.7-0.2-0.8-0.6-0.2-0.8l2-0.6
						c0.6-0.2,1.7-0.2,2.5,0.1l2.3,0.7C905.6,393.8,905.6,394.1,905,394.3z"/>
					<path class="st2" d="M899.2,392.2l-2.7,0.9c-0.4,0.1-1.1,0.1-1.6,0l-0.9-0.3c-0.5-0.2-0.5-0.4-0.1-0.5l2.7-0.9
						c0.4-0.1,1.1-0.1,1.6,0l0.9,0.3C899.6,391.9,899.6,392.1,899.2,392.2z"/>
					<path class="st2" d="M893.6,394l-2.7,0.9c-0.4,0.1-1.1,0.1-1.6,0l-0.9-0.3c-0.5-0.2-0.5-0.4-0.1-0.5l2.7-0.9
						c0.4-0.1,1.1-0.1,1.6,0l0.9,0.3C894,393.6,894,393.9,893.6,394z"/>
					<path class="st2" d="M888,395.8l-2.7,0.9c-0.4,0.1-1.1,0.1-1.6,0l-0.9-0.3c-0.5-0.2-0.5-0.4-0.1-0.5l2.7-0.9
						c0.4-0.1,1.1-0.1,1.6,0l0.9,0.3C888.4,395.4,888.4,395.6,888,395.8z"/>
					<path class="st2" d="M882.4,397.5l-2.7,0.9c-0.4,0.1-1.1,0.1-1.6,0l-0.9-0.3c-0.5-0.2-0.5-0.4-0.1-0.5l2.7-0.9
						c0.4-0.1,1.1-0.1,1.6,0l0.9,0.3C882.8,397.2,882.8,397.4,882.4,397.5z"/>
					<path class="st2" d="M876.8,399.3l-2.7,0.9c-0.4,0.1-1.1,0.1-1.6,0l-0.9-0.3c-0.5-0.2-0.5-0.4-0.1-0.5l2.7-0.9
						c0.4-0.1,1.1-0.1,1.6,0l0.9,0.3C877.2,398.9,877.2,399.2,876.8,399.3z"/>
					<path class="st2" d="M871.2,401.1l-2.7,0.9c-0.4,0.1-1.1,0.1-1.6,0l-0.9-0.3c-0.5-0.2-0.5-0.4-0.1-0.5l2.7-0.9
						c0.4-0.1,1.1-0.1,1.6,0l0.9,0.3C871.6,400.7,871.6,400.9,871.2,401.1z"/>
					<path class="st2" d="M865.6,402.8l-2.7,0.9c-0.4,0.1-1.1,0.1-1.6,0l-0.9-0.3c-0.5-0.2-0.5-0.4-0.1-0.5l2.7-0.9
						c0.4-0.1,1.1-0.1,1.6,0l0.9,0.3C866,402.5,866,402.7,865.6,402.8z"/>
					<path class="st2" d="M860,404.6l-2.7,0.9c-0.4,0.1-1.1,0.1-1.6,0l-0.9-0.3c-0.5-0.2-0.5-0.4-0.1-0.5l2.7-0.9
						c0.4-0.1,1.1-0.1,1.6,0l0.9,0.3C860.4,404.2,860.4,404.5,860,404.6z"/>
					<path class="st2" d="M854.4,406.4l-2.7,0.9c-0.4,0.1-1.1,0.1-1.6,0l-0.9-0.3c-0.5-0.2-0.5-0.4-0.1-0.5l2.7-0.9
						c0.4-0.1,1.1-0.1,1.6,0l0.9,0.3C854.8,406,854.8,406.2,854.4,406.4z"/>
					<path class="st2" d="M848.8,408.1l-2.7,0.9c-0.4,0.1-1.1,0.1-1.6,0l-0.9-0.3c-0.5-0.2-0.5-0.4-0.1-0.5l2.7-0.9
						c0.4-0.1,1.1-0.1,1.6,0l0.9,0.3C849.2,407.8,849.2,408,848.8,408.1z"/>
					<path class="st2" d="M843.2,409.9l-2.7,0.9c-0.4,0.1-1.1,0.1-1.6,0l-0.9-0.3c-0.5-0.2-0.5-0.4-0.1-0.5l2.7-0.9
						c0.4-0.1,1.1-0.1,1.6,0l0.9,0.3C843.6,409.5,843.6,409.8,843.2,409.9z"/>
					<path class="st2" d="M837.6,411.7l-2.7,0.9c-0.4,0.1-1.1,0.1-1.6,0l-0.9-0.3c-0.5-0.2-0.5-0.4-0.1-0.5l2.7-0.9
						c0.4-0.1,1.1-0.1,1.6,0l0.9,0.3C838,411.3,838,411.5,837.6,411.7z"/>
				</g>
				<path class="st20" d="M920.4,414.6l-17.4,5.5c-1,0.3-2.8,0.3-4-0.1l-8.9-2.8c-1.2-0.4-1.3-0.9-0.3-1.3l17.4-5.5
					c1-0.3,2.8-0.3,4,0.1l8.9,2.8C921.3,413.7,921.4,414.3,920.4,414.6z"/>
				<path class="st3" d="M835.2,416.9l-4.9-1.6c-0.3-0.1-0.5-0.3-0.5-0.5l0,0c0-0.2,0.2-0.3,0.5-0.2l4.9,1.6
					c0.3,0.1,0.5,0.3,0.5,0.5l0,0C835.7,416.9,835.4,417,835.2,416.9z"/>
				<path class="st3" d="M842.5,419.3l-4.9-1.6c-0.3-0.1-0.5-0.3-0.5-0.5l0,0c0-0.2,0.2-0.3,0.5-0.2l4.9,1.6
					c0.3,0.1,0.5,0.3,0.5,0.5l0,0C842.9,419.3,842.7,419.3,842.5,419.3z"/>
				<path class="st3" d="M864.5,426.2l-4.9-1.6c-0.3-0.1-0.5-0.3-0.5-0.5l0,0c0-0.2,0.2-0.3,0.5-0.2l4.9,1.6
					c0.3,0.1,0.5,0.3,0.5,0.5l0,0C865,426.2,864.7,426.3,864.5,426.2z"/>
			</g>
			<path class="st20" d="M894.3,354.6l-2.3-0.7l0,0c-0.4-0.2-1-0.2-1.6,0l-67.5,21.3c-1.3,0.4-2.4,1.5-2.4,2.5v31
				c0,0.5,0.3,0.9,0.8,1l0,0l2.4,0.8l1.2-1.5l65.4-20.6c1.3-0.4,2.4-1.5,2.4-2.5v-30.4c0.5,0.2,0.8,0.3,0.9,0.3
				C893.7,355.8,894.3,354.6,894.3,354.6z"/>
			<path class="st18" d="M825.4,410.4l67.5-21.3c1.3-0.4,2.4-1.5,2.4-2.5v-31c0-0.9-1.1-1.4-2.4-1l-67.5,21.3
				c-1.3,0.4-2.4,1.5-2.4,2.5v31C823,410.3,824.1,410.8,825.4,410.4z"/>
			<path class="st28" d="M825.9,409.7l66.4-21c1.3-0.4,2.3-1.5,2.3-2.4v-30.3c0-0.9-1-1.4-2.3-1l-66.4,21c-1.3,0.4-2.3,1.5-2.3,2.4
				v30.3C823.6,409.7,824.6,410.1,825.9,409.7z"/>
			<polygon class="st3" points="869.3,365.1 825.7,378.8 825.7,407.1 869.3,393.4 			"/>
			<polygon class="st4" points="867.1,367 827.3,379.5 827.3,380.1 867.1,367.6 			"/>
			<polygon class="st4" points="848.6,374.5 827.3,381.2 827.3,381.9 848.6,375.2 			"/>
			<polygon class="st4" points="850.7,373.9 850.7,374.5 867.1,369.3 867.1,368.7 			"/>
			<polygon class="st4" points="867.1,370.4 827.3,383 827.3,383.6 867.1,371.1 			"/>
			<polygon class="st4" points="840,380.8 827.3,384.7 827.3,385.4 840,381.4 			"/>
			<polygon class="st4" points="842.1,380.1 842.1,380.7 867.1,372.8 867.1,372.2 			"/>
			<polygon class="st4" points="854.6,377.9 827.3,386.5 827.3,387.2 854.6,378.5 			"/>
			<polygon class="st4" points="854.6,379.7 827.3,388.3 827.3,388.9 854.6,380.3 			"/>
			<polygon class="st4" points="856.7,377.3 856.7,377.9 867.1,374.6 867.1,374 			"/>
			<polygon class="st18" points="869.3,365.1 869.3,393.4 892.5,386 892.5,357.8 			"/>
			<polygon class="st8" points="869.3,365.1 869.3,369.9 892.5,362.6 892.5,357.8 			"/>
			<path class="st3" d="M858.2,367.2c0,0.3,0.4,0.5,0.8,0.3c0.5-0.1,0.8-0.5,0.8-0.9c0-0.3-0.4-0.5-0.8-0.3
				C858.5,366.5,858.2,366.9,858.2,367.2z"/>
			<path class="st3" d="M862.2,365.8c0,0.3,0.3,0.4,0.7,0.3c0.4-0.1,0.7-0.4,0.7-0.7c0-0.3-0.3-0.4-0.7-0.3
				C862.5,365.3,862.2,365.6,862.2,365.8z"/>
			<g>
				<path class="st3" d="M822.9,380.1c0-0.1,0.2-0.1,0.2,0c0.1,1.4,0,2.7,0,4.1c0,1.4,0,2.7-0.1,4.1c0,0.1-0.3,0.1-0.3,0
					C822.8,385.7,822.4,382.7,822.9,380.1z"/>
				<path class="st3" d="M827.7,375.4c1.8-0.7,9.9-3.3,12.9-4.2c0.5-0.1,0.7-0.1,0.2,0.1c-2.3,1-10.9,3.7-12.9,4.2
					C827.7,375.6,827.4,375.5,827.7,375.4z"/>
				<path class="st3" d="M844,370.3c1.8-0.7,9.9-3.3,12.9-4.2c0.5-0.1,0.7-0.1,0.2,0.1c-2.3,1-10.9,3.7-12.9,4.2
					C844,370.5,843.7,370.4,844,370.3z"/>
				<path class="st3" d="M893.1,425.2c-4.2,1.1-8.6,3.1-13.6,3.4c-2.9,0.2-5.3-0.6-7.8-1.4c-2.1-0.6-4.2-1.3-6.4-1.9
					c-0.1,0-0.1,0,0,0c2.4,1,4.9,1.8,7.5,2.5c2.1,0.7,4.4,1.2,6.9,1.1c4.3-0.2,9.9-2.1,13.5-3.7
					C893.3,425.3,893.2,425.2,893.1,425.2z"/>
			</g>
			<g>
				<polygon class="st3" points="880.1,383.8 872.6,386.1 872.6,386.8 880.1,384.4 				"/>
				<polygon class="st3" points="880.1,384.9 872.6,387.3 872.6,388 880.1,385.6 				"/>
				<polygon class="st3" points="880.1,386.1 872.6,388.5 872.6,389.1 880.1,386.8 				"/>
				<polygon class="st3" points="880.1,387.3 872.6,389.7 872.6,390.3 880.1,388 				"/>
			</g>
			<g>
				<polygon class="st3" points="889.5,380.7 882,383.1 882,383.8 889.5,381.4 				"/>
				<polygon class="st3" points="889.5,381.9 882,384.3 882,384.9 889.5,382.6 				"/>
				<polygon class="st3" points="889.5,383.1 882,385.5 882,386.1 889.5,383.8 				"/>
				<polygon class="st3" points="889.5,384.3 882,386.7 882,387.3 889.5,384.9 				"/>
			</g>
			<polygon class="st4" points="891.3,378.2 870.5,384.7 870.5,385.9 891.3,379.4 			"/>
			<g>
				<g>
					<polygon class="st3" points="890,376.9 872.1,382.6 872.1,369.1 890,363.4 					"/>
				</g>
				<polygon class="st8" points="875.5,381.1 873,381.9 873,370.3 875.5,369.5 				"/>
				<polygon class="st8" points="879.8,379.8 877.2,380.6 877.2,370.8 879.8,370 				"/>
				<polygon class="st8" points="884,378.4 881.5,379.2 881.5,371.4 884,370.6 				"/>
				<polygon class="st8" points="888.2,377.1 885.7,377.9 885.7,372.1 888.2,371.3 				"/>
				<g>
					<polygon class="st4" points="890,376.9 872.1,382.6 872.1,382.1 890,376.4 					"/>
				</g>
			</g>
		</g>
		<g>
			<path class="st4" d="M893.4,515.4c-9.4,0.6-11.5,5.5-4.7,8.5c6.2,2.8,13,6.1,21.2,7.2c8.3,1.2,14.4-0.4,14.4-0.4l1.1,2.6
				c0,0,11,2,15.4-1c1.6-3.4,0.9-11-2.9-14.4c-4.1-3.6-7.4-2.5-18-1.6C915.2,516.8,896.8,515.2,893.4,515.4z"/>
			<path class="st4" d="M943.2,501.9c-9.4,0.6-11.5,5.5-4.7,8.5c6.2,2.8,13,6.1,21.2,7.2c8.3,1.2,14.4-0.4,14.4-0.4l1.1,2.6
				c0,0,11,2,15.4-1c1.6-3.4,0.9-11-2.9-14.4c-4.1-3.6-7.4-2.5-18-1.6C965,503.4,946.6,501.7,943.2,501.9z"/>
			<path class="st20" d="M984.1,456.7c-12.1,1.9-24-1.7-37.2-3.1c0.8,2.3,1.7,8,3.7,12.3c6.3,12.8,8.5,32.4,11.5,40.4
				c4.2,2.7,24.4,4.6,25.6-0.9c2.9-12.8,6.7-28.7,0.7-40.7C986.4,460.7,985.2,458.5,984.1,456.7z"/>
			<path class="st18" d="M936.7,468.1c-11.3,2.1-14.1-12.3-25.8-14.3c-7.6,5.5-8.7,18.4-7.3,25c2.8,13.2,5.9,32.3,7.8,40.5
				c3.9,2.9,25.7,5.2,27.6-0.2c4.6-12.6,3-27.3,0.4-39.7C938.6,475.5,938.5,471.4,936.7,468.1z"/>
			<g>
				<path class="st3" d="M939.8,488.1v52c0,0.8,2,1.5,4.5,1.5c2.5,0,4.5-0.7,4.5-1.5v-52H939.8z"/>
				<path class="st3" d="M1013.5,511.8v52c0,0.8,2,1.5,4.5,1.5c2.5,0,4.5-0.7,4.5-1.5v-52H1013.5z"/>
				<path class="st3" d="M1088.8,488.1v52c0,0.8,2,1.5,4.5,1.5c2.5,0,4.5-0.7,4.5-1.5v-52H1088.8z"/>
			</g>
			<g>
				<polygon class="st8" points="1103.1,491.7 1018.1,518.5 933.2,491.6 1018.2,464.8 				"/>
				<polygon class="st8" points="1103.1,488 1018.1,514.8 933.2,488 1018.2,461.2 				"/>
				<polygon class="st19" points="933.2,488 933.2,491.6 1018.1,518.5 1018.1,514.8 				"/>
				<polygon class="st17" points="1103.1,488 1103.1,491.7 1018.1,518.5 1018.1,514.8 				"/>
			</g>
			<path class="st20" d="M948.3,458.9c0.8-0.1,25.2,2.5,26.1,2.5c16.2,7.2,32.6,21.8,50.3,24.8c14,9,26.8,1.4,32-1.6
				c14.8-8.3,13-21.3,9.3-25.7c-1.3-1.5-15.1-0.2-23.2-2.1c-5.3-1.2-29.8-7.9-55.1-13.7c-4-0.9-33.1-5.2-38.7-0.2
				C942,449,943.9,452,948.3,458.9z"/>
			<path class="st18" d="M1045.1,473.4c7.8-19.8-43.6-7.2-51.3-9.7c-5-1.6-39.1-7.9-64.1-14c-11.4-2.8-19.4,2-22.8,8.7
				c-3.8,7.3,15.7,1.8,18.2,8.9c0.1,0.3,0,0.6-0.2,0.8c15.1,15.7,43.4,22.2,53,23.5c11.9,5.7,34.4,8,45.2,5.2
				C1039.2,492.6,1041.9,481.5,1045.1,473.4z"/>
			<g>
				<path class="st23" d="M1009.8,393.6c0,0-23.5,4.6-34.1,10.5c-10.7-2.9-32-4.4-42.5-4.8c-10.4-0.4-13.1,7.8-8.6,10.3
					c4.5,2.6,22.9,7.4,38.4,8.7c15.5,1.3,33.6,0,33.6,0L1009.8,393.6z"/>
				<path class="st23" d="M1011.2,392.2c0,0,20-11.7,37.7,1.6c19.7,14.8-7.6,26.8-14.2,34.5C1032.6,430.8,1011.2,392.2,1011.2,392.2
					z"/>
				<g>
					<path class="st1" d="M994.3,393.4l3.8,8.2c8.7-0.5,18.4-2.2,24-6.7c-2.3-1.7-4.5-8.4-4.5-10.2c5.2-4.3,2.3-8.9-3.7-14.2
						c-6.4-5.5-21.4-7.5-32.2-4.9c-1.4,0.1-9.4,1.8-10.5,6.4c-1.3,5.1-1.5,17.8,5.3,21C981.2,395.4,988.6,393.8,994.3,393.4z"/>
					<path class="st4" d="M1026.5,372.2c0.9-3.9-1.3-7.8-7.9-10.7c-7.5-3.2-22.4-5.6-31-2.3c-0.1-0.1-0.1-0.3-0.2-0.4
						c-1.4-1.8-5-2-7.9-1.3c-2.3,0.5-4.3,1.5-5.8,2.7c-1.3-0.5-3-0.7-4.5-0.6c-5.4,0.4-6.9,4.3-6.2,6.7c1.5,5.1,12.5,11.9,22.8,12
						c-1.7,2.6,0,4.4,3.2,6.7c4.9,3.6,13.6,4.9,21.4,4c8.8-1.1,18.2-5,19.9-10.1C1031,376.3,1029.5,373.8,1026.5,372.2z"/>
					<path class="st1" d="M981.8,378.9c0,0,3.2-2.9,7.7-0.2c4.5,2.7-4.6,7.7-4.6,7.7L981.8,378.9z"/>
				</g>
				<path class="st3" d="M1030.1,394c-10.1,0.4-24.2,4.4-44.5,11.9c-20.3,7.5-12.6,11.2-11.4,16.3c1.2,5.1,1.1,3.7,7.6,13.8
					c-2.7,12.3,4.5,23.9,4.5,23.9s-16.5,0.4-10.2,6.6c4.8,2.8,26.2,11.6,44.1,11.5c15.4-0.1,25.9-2.3,41.9-10
					c0.1-14.1-2.8-34.5-4.3-46.1C1056.1,408.2,1056.1,392.9,1030.1,394z"/>
				<path class="st23" d="M992.9,465.7c0,0,10.2,1.3,21.3,2.9c11.1,1.6,12.5,1.4,20.5,2.2c-3.1,0-16.6,1.2-24.7,0.2
					C1000.7,469.9,992.9,465.7,992.9,465.7z"/>
				<path class="st23" d="M1034.7,462.4c0,0-6.4,2.9-16,2.4c-9.6-0.5-15.6-1.1-15.6-1.1s10.3-1.6,15.6-1.2
					C1024.1,462.8,1034.7,462.4,1034.7,462.4z"/>
				<path class="st2" d="M924,435.1c3.2-2,19.4-10.4,30-13.9c10.7-11,20.7-13.6,28.7-12.9c11.4,1,18.9,8.4,16.9,16.9
					c-2.6,11.4-11.1,17.6-24.1,13.9c-3.4,5.3-36.2,13.8-47.1,12.4C920.9,447,920.8,440.9,924,435.1z"/>
				<path class="st1" d="M886.2,414.4c1.1,1.3,0.8,1.2,3.4,1.9c1.1-1.6,2.1-5.6,6.8-6c2.5-0.3-0.4,3.3-0.8,6.2
					c-0.4,2.6,0.8,4.3,2.9,6.4c0,0-1.6,6.5-6.1,6.5c-4.5,0-16.6-5.3-19.6-7.2c-3-1.9-4.5-2.9-0.3-7.3c2-2.1,4.7-2.7,7.9-2.2
					c3.8-2.8,5.8-2.8,8.3-1.8C887.7,412.3,886.8,413.5,886.2,414.4z"/>
				<path class="st2" d="M905.8,426.3l-7.3-3.5c0,0-3.9-0.4-9.5,2.3c-3.5,1.6-4.1,3.8-4.1,3.8l7.5,4.3L905.8,426.3z"/>
				<path class="st2" d="M903.9,425.2c8.9-0.1,19.4,6.5,28.6,10.5c-4.3,5.2,16.7,13,9.6,15.4c-6.3,2.1-18,2.6-23.6-0.1
					c-11.5-5.5-23.2-14.1-28.6-19.2C890.6,429.7,896.2,425.8,903.9,425.2z"/>
				<path class="st2" d="M989.4,404.3c0,0,7.8-5.7,17.1-8.6c9.3-2.9,19.4-5.8,19.4-5.8l4.3,4.1c0,0-3.9,4.8-12.3,6.9
					C1009.3,402.9,989.4,404.3,989.4,404.3z"/>
			</g>
			<g>
				<path class="st19" d="M1100.4,426.7l-5.9-1.8l0,0c-1.3-0.4-2.9-0.4-4.7,0.2l-70.8,22.3c-4,1.3-7.2,4.6-7.2,7.5v58l6.2,1.9
					l79-28.8l1.9-55.8L1100.4,426.7z"/>
				<path class="st17" d="M1103.2,488v-58c0-2.9-3.2-4.2-7.2-3l-70.8,22.3c-4,1.3-7.2,4.6-7.2,7.5v58L1103.2,488z"/>
			</g>
		</g>
		<g>
			<path class="st19" d="M925.7,371.8h-1.6l3.6,13.2c0,1.5,4.1,2.7,9.2,2.7c5.1,0,9.2-1.2,9.2-2.7l3.6-13.2H925.7z"/>
			<path class="st17" d="M936.9,368.1c-6.6,0-12,1.4-12.7,3.3c-0.1,0.1-0.1,0.3-0.1,0.4c0,2.1,5.7,3.7,12.8,3.7
				c7.1,0,12.8-1.7,12.8-3.7C949.7,369.7,944,368.1,936.9,368.1z"/>
			<g>
				<path class="st19" d="M937,370.9c4.9,0,9.1,0.9,10.9,2.1c0.6-0.4,0.9-0.8,0.9-1.3c0-1.9-5.3-3.4-11.8-3.4
					c-6.5,0-11.8,1.5-11.8,3.4c0,0.5,0.3,0.9,0.9,1.3C927.8,371.8,932.1,370.9,937,370.9z"/>
				<path class="st9" d="M937,375.1c4.9,0,9.1-0.9,10.9-2.1c-1.8-1.2-6-2.1-10.9-2.1c-4.9,0-9.1,0.9-10.9,2.1
					C927.8,374.2,932.1,375.1,937,375.1z"/>
			</g>
		</g>
		<g>
			<path class="st19" d="M641.7,446.2h-1.6l3.6,13.2c0,1.5,4.1,2.7,9.2,2.7c5.1,0,9.2-1.2,9.2-2.7l3.6-13.2H641.7z"/>
			<path class="st17" d="M653,442.5c-6.6,0-12,1.4-12.7,3.3c-0.1,0.1-0.1,0.3-0.1,0.4c0,2.1,5.7,3.7,12.8,3.7
				c7.1,0,12.8-1.7,12.8-3.7C665.8,444.2,660.1,442.5,653,442.5z"/>
			<g>
				<path class="st19" d="M653,445.3c4.9,0,9.1,0.9,10.9,2.1c0.6-0.4,0.9-0.8,0.9-1.3c0-1.9-5.3-3.4-11.8-3.4s-11.8,1.5-11.8,3.4
					c0,0.5,0.3,0.9,0.9,1.3C643.9,446.2,648.1,445.3,653,445.3z"/>
				<path class="st9" d="M653,449.5c4.9,0,9.1-0.9,10.9-2.1c-1.8-1.2-6-2.1-10.9-2.1c-4.9,0-9.1,0.9-10.9,2.1
					C643.9,448.6,648.1,449.5,653,449.5z"/>
			</g>
		</g>
		<g>
			<path class="st19" d="M449.3,418.2h-1.6l3.6,13.2c0,1.5,4.1,2.7,9.2,2.7c5.1,0,9.2-1.2,9.2-2.7l3.6-13.2H449.3z"/>
			<path class="st17" d="M460.5,414.5c-6.6,0-12,1.4-12.7,3.3c-0.1,0.1-0.1,0.3-0.1,0.4c0,2.1,5.7,3.7,12.8,3.7
				c7.1,0,12.8-1.7,12.8-3.7C473.3,416.2,467.6,414.5,460.5,414.5z"/>
			<g>
				<path class="st19" d="M460.6,417.4c4.9,0,9.1,0.9,10.9,2.1c0.6-0.4,0.9-0.8,0.9-1.3c0-1.9-5.3-3.4-11.8-3.4
					c-6.5,0-11.8,1.5-11.8,3.4c0,0.5,0.3,0.9,0.9,1.3C451.4,418.2,455.7,417.4,460.6,417.4z"/>
				<path class="st9" d="M460.6,421.5c4.9,0,9.1-0.9,10.9-2.1c-1.8-1.2-6-2.1-10.9-2.1c-4.9,0-9.1,0.9-10.9,2.1
					C451.4,420.7,455.7,421.5,460.6,421.5z"/>
			</g>
		</g>
		<g>
			<path class="st19" d="M226.2,366.9h-1.6l3.6,13.2c0,1.5,4.1,2.7,9.2,2.7c5.1,0,9.2-1.2,9.2-2.7l3.6-13.2H226.2z"/>
			<path class="st17" d="M237.4,363.2c-6.6,0-12,1.4-12.7,3.3c-0.1,0.1-0.1,0.3-0.1,0.4c0,2.1,5.7,3.7,12.8,3.7s12.8-1.7,12.8-3.7
				C250.2,364.9,244.5,363.2,237.4,363.2z"/>
			<g>
				<path class="st19" d="M237.5,366c4.9,0,9.1,0.9,10.9,2.1c0.6-0.4,0.9-0.8,0.9-1.3c0-1.9-5.3-3.4-11.8-3.4
					c-6.5,0-11.8,1.5-11.8,3.4c0,0.5,0.3,0.9,0.9,1.3C228.3,366.9,232.6,366,237.5,366z"/>
				<path class="st9" d="M237.5,370.2c4.9,0,9.1-0.9,10.9-2.1c-1.8-1.2-6-2.1-10.9-2.1c-4.9,0-9.1,0.9-10.9,2.1
					C228.3,369.3,232.6,370.2,237.5,370.2z"/>
			</g>
		</g>
		<g>
			<path class="st19" d="M209.9,281.4h-1.6l3.6,13.2c0,1.5,4.1,2.7,9.2,2.7c5.1,0,9.2-1.2,9.2-2.7l3.6-13.2H209.9z"/>
			<path class="st17" d="M221.2,277.7c-6.6,0-12,1.4-12.7,3.3c-0.1,0.1-0.1,0.3-0.1,0.4c0,2.1,5.7,3.7,12.8,3.7
				c7.1,0,12.8-1.7,12.8-3.7C234,279.3,228.2,277.7,221.2,277.7z"/>
			<g>
				<path class="st19" d="M221.2,280.5c4.9,0,9.1,0.9,10.9,2.1c0.6-0.4,0.9-0.8,0.9-1.3c0-1.9-5.3-3.4-11.8-3.4
					c-6.5,0-11.8,1.5-11.8,3.4c0,0.5,0.3,0.9,0.9,1.3C212.1,281.4,216.3,280.5,221.2,280.5z"/>
				<path class="st9" d="M221.2,284.7c4.9,0,9.1-0.9,10.9-2.1c-1.8-1.2-6-2.1-10.9-2.1c-4.9,0-9.1,0.9-10.9,2.1
					C212.1,283.8,216.3,284.7,221.2,284.7z"/>
			</g>
		</g>
		<g>
			<path class="st19" d="M507.4,228.5h-1.6l3.6,13.2c0,1.5,4.1,2.7,9.2,2.7c5.1,0,9.2-1.2,9.2-2.7l3.6-13.2H507.4z"/>
			<path class="st17" d="M518.7,224.8c-6.6,0-12,1.4-12.7,3.3c-0.1,0.1-0.1,0.3-0.1,0.4c0,2.1,5.7,3.7,12.8,3.7
				c7.1,0,12.8-1.7,12.8-3.7C531.5,226.4,525.8,224.8,518.7,224.8z"/>
			<g>
				<path class="st19" d="M518.7,227.6c4.9,0,9.1,0.9,10.9,2.1c0.6-0.4,0.9-0.8,0.9-1.3c0-1.9-5.3-3.4-11.8-3.4
					c-6.5,0-11.8,1.5-11.8,3.4c0,0.5,0.3,0.9,0.9,1.3C509.6,228.5,513.8,227.6,518.7,227.6z"/>
				<path class="st9" d="M518.7,231.7c4.9,0,9.1-0.9,10.9-2.1c-1.8-1.2-6-2.1-10.9-2.1c-4.9,0-9.1,0.9-10.9,2.1
					C509.6,230.9,513.8,231.7,518.7,231.7z"/>
			</g>
		</g>
		<path class="st1" d="M927.1,400.2c-5.5-0.6-12.2-1.3-17.1-2.2c-9.8-1.7-10.3,0-20.9,2.6c-2.7,0.7-4.3,1.1-4.3,2
			c-3.7,1.7-1.9,2.8,1.8,2.7c6.5-0.1,15.7-2.3,15.7-0.1c0,1.4-5.7,1.5-4.7,3.5c0.4,0.9,3.6-0.5,6.5-1.1c2.9-0.6,5.4-0.5,7.3-1.1
			c2.1-0.7,7.4,0.1,11.8,0.9C922.8,404.9,924.3,402,927.1,400.2z"/>
		<g>
			<g>
				<polygon class="st9" points="407.7,454.4 451.5,468.2 528.3,443.9 484.5,430.1 				"/>
				<polygon class="st2" points="528.3,443.9 528.3,444.6 451.5,468.9 451.5,468.2 				"/>
				<polygon class="st23" points="407.7,454.4 407.7,455.1 451.5,468.9 451.5,468.2 				"/>
				<polygon class="st18" points="478,434.2 514.5,445.7 520.8,443.7 484.5,432.3 				"/>
				<g>
					<polygon class="st24" points="472.7,435.9 473.8,435.6 480.3,437.6 479.1,438 					"/>
					<polygon class="st24" points="510.2,447.1 509,447.4 480.2,438.3 481.3,437.9 					"/>
					<polygon class="st24" points="470.1,436.7 471.2,436.4 477.7,438.4 476.5,438.8 					"/>
					<polygon class="st24" points="507.6,447.9 506.4,448.2 477.6,439.1 478.7,438.8 					"/>
					<polygon class="st24" points="505,448.7 503.9,449 475,439.9 476.2,439.6 					"/>
					<polygon class="st24" points="467.5,437.5 468.7,437.2 475.1,439.2 474,439.6 					"/>
					<polygon class="st24" points="502.5,449.5 501.3,449.8 472.4,440.7 473.6,440.4 					"/>
					<polygon class="st24" points="464.9,438.4 466.1,438 472.5,440.1 471.4,440.4 					"/>
					<polygon class="st24" points="462.3,439.2 463.5,438.8 470,440.9 468.8,441.2 					"/>
					<polygon class="st24" points="499.9,450.3 498.7,450.6 469.9,441.5 471,441.2 					"/>
					<polygon class="st24" points="459.7,440 460.9,439.6 467.4,441.7 466.2,442 					"/>
					<polygon class="st24" points="497.3,451.1 496.1,451.5 467.3,442.4 468.4,442 					"/>
					<polygon class="st24" points="494.7,451.9 493.5,452.3 464.7,443.2 465.9,442.8 					"/>
					<polygon class="st24" points="457.1,440.8 458.3,440.4 464.8,442.5 463.7,442.8 					"/>
					<polygon class="st24" points="492.2,452.7 491,453.1 462.2,444 463.3,443.6 					"/>
					<polygon class="st24" points="454.6,441.6 455.8,441.3 462.3,443.3 461.1,443.7 					"/>
					<polygon class="st24" points="452.1,442.4 453.2,442.1 459.7,444.1 458.6,444.5 					"/>
					<polygon class="st24" points="489.6,453.5 488.4,453.9 459.6,444.8 460.8,444.4 					"/>
					<polygon class="st24" points="457,445.6 458.2,445.2 468.7,448.6 468.7,448.6 487,454.4 485.8,454.7 467.8,449 467.8,449 					
						"/>
					<polygon class="st24" points="449.5,443.2 450.7,442.9 457.1,444.9 456,445.3 					"/>
					<polygon class="st24" points="446.9,444 448.1,443.7 454.6,445.7 453.4,446.1 					"/>
					<polygon class="st24" points="484.4,455.2 483.3,455.5 454.5,446.4 455.6,446.1 					"/>
					<polygon class="st24" points="444.5,444.9 445.7,444.5 452,446.5 450.9,446.9 					"/>
					<polygon class="st24" points="482,456 480.8,456.3 451.9,447.2 453.1,446.9 					"/>
					<polygon class="st24" points="418.7,453 419.9,452.6 426.3,454.6 425.2,455 					"/>
					<polygon class="st24" points="456.3,464.1 455.1,464.4 426.2,455.3 427.4,455 					"/>
					<polygon class="st24" points="453.7,464.9 452.5,465.2 423.7,456.1 424.8,455.8 					"/>
					<polygon class="st24" points="416.1,453.8 417.3,453.4 423.8,455.4 422.6,455.8 					"/>
				</g>
				<g>
					<polygon class="st8" points="455.2,461.7 456.7,462.2 469.1,458.3 467.5,457.8 					"/>
					<polygon class="st8" points="451.8,460.6 453.4,461.1 462.4,458.3 460.9,457.8 					"/>
					<polygon class="st8" points="448.4,459.6 449.9,460 456.7,457.9 455.2,457.4 					"/>
					<polygon class="st8" points="445.2,458.5 446.7,459 457.4,455.7 455.8,455.2 					"/>
					<polygon class="st8" points="441.8,457.5 443.4,458 448,456.5 446.4,456 					"/>
					<polygon class="st23" points="438.4,456.4 439.9,456.9 449,454 447.5,453.5 					"/>
					<polygon class="st23" points="435.2,455.4 436.7,455.9 443.5,453.7 441.9,453.2 					"/>
					<polygon class="st23" points="432,454.4 433.5,454.9 448.4,450.2 446.8,449.7 					"/>
					<polygon class="st23" points="428.6,453.3 430.2,453.8 440.9,450.4 439.4,449.9 					"/>
					<polygon class="st23" points="425.2,452.2 426.7,452.7 431.3,451.3 429.8,450.8 					"/>
					<polygon class="st4" points="423,451.5 459.3,463 458.8,463.1 422.6,451.7 					"/>
				</g>
				<polygon class="st8" points="471.5,455.2 472.7,454.8 479.1,456.9 478,457.2 				"/>
				<polygon class="st8" points="468.8,456 470,455.7 476.5,457.7 475.3,458.1 				"/>
			</g>
			<g>
				<path class="st4" d="M406.4,508.5c0,0,16.3-3.1,23.2-8.2c4.2-3.1,0.1-6.7-1.7-8.5c-1.2-1.1-5.4-2.3-10.7-3
					c-13.5-1.8-32.7-0.5-48.2,3.3C353.4,495.9,406.4,508.5,406.4,508.5z"/>
				<g>
					<g>
						<path class="st7" d="M463.8,557.6c6.4,1.4,8.2,2.6,6.5,4.9c-2.5,3.3-9,5.3-14.7,6c-8.6,1-15,7.5-24.2,2.3
							c-2.4-1.3-0.3-4.8,0.5-6.7c-0.2-1.3,4-5.3,3.7-8.8c9.1,1.9,10.1,0.7,12.5,1.6c-0.4,1.2-0.8,2.4-1.4,3.5
							C450,559.9,459.5,556.6,463.8,557.6z"/>
					</g>
					<path class="st18" d="M431.8,563.5c0,0,5.4,1.1,8.8,1.7c3.5,0.6,11.8,0.8,18.1-2.5c4.9-2.6-2.7-4.4-2.7-4.4s6.8-4.2,14.8-2.4
						c3.7,0.8,5.9,5.3,3.8,7.3c-2.3,2.1-6.9,4.4-10.5,4.9c-3.6,0.5-10.7,1.8-13.4,2.7c-5,1.6-13.5,4.5-19.2,1.5
						C425.9,569.1,431.8,563.5,431.8,563.5z"/>
				</g>
				<g>
					<g>
						<path class="st1" d="M387.5,545.7c-0.2,0.5,2.8,8.2,4.2,10.4c1,1.7,1.3,2.7,4.3,3.2c6.1,0.2,6.4,0.8,7.9,2.5
							c1.3,1.5-7.5,4.4-13.4,4c-1.6-0.1-8.7-0.2-11.1-2.3c-3.4-3,0.3-5.7-1.8-9.2c-2.3-3.9-11.7-3.8-8.9-7.9
							c0.8-1.2,3.3-3.8,4.5-4.8c0.7-0.7,1.7-2.9,2.5-5.8c6.6,1.7,12.4,1.4,15.7,2.1C389.9,540.2,389,542.1,387.5,545.7z"/>
					</g>
					<g>
						<path class="st18" d="M381.4,562.1c-0.8-2.8-0.8-8.6-3.2-10.7c-2-1.8-6.8-4.3-12-5.4c3.5-3,7-4.4,7-4.4s9.5,3.7,10.6,8.6
							c1.1,4.9,1,11.1,7.4,11.5c6.3,0.4,3.5-2.7,3.5-2.7s10.5-2.8,11.7,2.8c0.4,1.9-1.1,3.5-7.2,5.1c-3.1,0.8-6.7,1.2-10.2,1.1
							C385.2,567.1,382.2,564.9,381.4,562.1z"/>
						<path class="st20" d="M374.8,555.4c-0.7-2.8-14.1-4.5-8.8-9.2c0.1-0.1,0.2-0.1,0.3-0.2c5.2,1.1,10,3.6,12,5.4
							c2.5,2.2,2.5,7.9,3.2,10.7c0.8,2.8,3.7,5,7.5,5.8c-3.4-0.1-6.7-0.7-9.5-2.1C373.8,563.2,375.5,558.2,374.8,555.4z"/>
					</g>
				</g>
				<path class="st10" d="M384.9,509.4c1.9-4,5.7-8.6,10.7-11.1c9.4,2.3,19.9,3.3,29.4,2.5c-0.4,0.3-0.8,0.5-1.4,0.7
					c-1.9,5.9-6.5,10.8-11.5,15.3c-7.7,6.9-16.6,18-23.1,25.3c-4.1-2.5-11.7-3.7-14-3.5C374.6,536,381.2,517.1,384.9,509.4z"/>
				<path class="st16" d="M437.9,500.8c9.5,1.3,4.5-3.8,14.4-2.1c10,1.7,10,9.4,7.8,10.7c-2.1,10.8-7.8,38.2-12.3,48.4
					c-4.4,1-11,2.9-13.1,1c-0.8-5.1-8.6-28.4-9.1-32.3C423.6,512.7,431.1,506.1,437.9,500.8z"/>
				<g>
					<path class="st3" d="M437.9,528.9v56.3c0,0.8-2,1.4-4.4,1.4c-2.4,0-4.4-0.6-4.4-1.4v-56.3H437.9z"/>
					<path class="st3" d="M367.3,547.5v60.3c0,0.8-2,1.4-4.4,1.4c-2.4,0-4.4-0.6-4.4-1.4v-60.3H367.3z"/>
					<path class="st3" d="M296.7,526.3v58.9c0,0.8-2,1.4-4.4,1.4c-2.4,0-4.4-0.6-4.4-1.4v-58.9H296.7z"/>
				</g>
				<g>
					<polygon class="st8" points="281.4,533.1 362.9,558.8 444.3,533.1 362.8,507.4 					"/>
					<polygon class="st8" points="281.4,529.6 362.9,555.3 444.3,529.6 362.8,503.9 					"/>
					<polygon class="st19" points="444.3,529.6 444.3,533.1 362.9,558.8 362.9,555.3 					"/>
					<polygon class="st17" points="281.4,529.6 281.4,533.1 362.9,558.8 362.9,555.3 					"/>
				</g>
				<g>
					<path class="st20" d="M348.9,435.3c0,0-4.5,0.2-11.2,6.7c-6.6,6.6-9.1,17.2,4.9,20.1c14,2.9,15.9-24.5,15.9-24.5L348.9,435.3z"
						/>
					<path class="st10" d="M375.3,517.1c-4.9,4.1-3.8,7.5-4,11.9c-13.5-0.5-26.7-0.3-38-3.9c-23.4-7.4-6.5-25.5,7.2-36.9
						c9.5,7,29.5,12.1,46,11.3c-0.5,3.8-2,7.6-3.2,9.7C381.7,512.2,378.5,514.4,375.3,517.1z"/>
					<path class="st16" d="M345.2,517.7c3.4-10,7.8-17.1,8.1-19.5c0.2-1.7,32.4,3.8,47.2,2c9.7-1.1,37.8-4.5,51.8-1.6
						c7.9,4.5,1.6,10.9-10.7,17.2c-12.4,6.5-36.6,11.2-43,12.1c-4.8,2.9-15.8,6.6-27.9,6.6C353.1,534.6,343.2,523.5,345.2,517.7z"/>
					<path class="st1" d="M351.7,442.6c0.1-0.4,0.8-0.8,1.5-1c11.1-2.2,13.3-5.7,14.5-11.4c0.2-0.8,2-1.3,3.3-0.9
						c6.3,1.8,12.7,3,19.7,3.7c-4.9,10.7,7,12.4,12.6,16.3c1.4,1-11,6.8-18.1,6.5c-6.1-0.2-12.3-1-17.8-2.6
						C361.3,451.6,350.6,446.9,351.7,442.6z"/>
					<path class="st1" d="M366.1,417.1c0.3-5.4,7.3-12.9,18.3-12.9c11.2,0,20.1,8.7,21.6,12.9c2.5,7.1,3.3,20.7-18.1,17.2
						C371.3,431.7,365.6,425.1,366.1,417.1z"/>
					<path class="st18" d="M411.4,459.8c0.5-4.6-5.5-10.9-14.2-13.6c-8.8-0.8-17.6,3.6-27.6-0.2c-7.1-2.7-7.2-6.3-8.5-6.8
						c-9.4-3.3-14-0.5-18,3.2c-9.3,8.7-5.5,18.5-0.1,27.5c4,6.6-6.2,19.3-11.6,24.9c3.2,3.9,11.5,7.9,22.2,9.9
						c9.2,1.7,39.7,3.5,46.1-3.6c-2.3-6.8-2.8-11.3-2.3-14.6c0.6-4.1,2.7-6.1,4.9-7.7c2.4-1.8,12.6-5.4,13.3-8.5
						C416.2,466.8,411,463.5,411.4,459.8z"/>
					<path class="st2" d="M356.5,436.7c0,0-2.5,3.5,1,6.7c3.4,3.2,9.8,4.8,17.4,4.9c7.7,0.1,23.7-1.7,23.7-1.7s0.5-2.5-4.3-3.3
						c-4.8-0.8-19.1,1.3-25.2-0.4c-6.1-1.7-6.1-3.9-8.4-5.6C358.4,435.5,356.5,436.7,356.5,436.7z"/>
				</g>
				<g>
					<path class="st19" d="M284,470.8l5.7-1.7l0,0c1.2-0.4,2.8-0.4,4.5,0.2l67.8,21.4c3.8,1.2,6.9,4.4,6.9,7.2v55.6l-6,1.8
						l-75.7-27.6l-1.8-53.5L284,470.8z"/>
					<path class="st17" d="M281.3,529.6V474c0-2.8,3.1-4.1,6.9-2.9l67.9,21.4c3.8,1.2,6.9,4.4,6.9,7.2v55.6L281.3,529.6z"/>
				</g>
				<path class="st1" d="M393,441.9c3.2-1.5,28.6-7.7,32.3-8.6c7.1-1.8,12.4,1.2,16.7,3.2c4.2,2,6.9,3.3,4.1,3.9
					c-1.3,0.3-4.1-0.6-4.1-0.6s1.8,2.3,0,3.5c-1.8,1.3-3.4-1.6-4.6-2.3c-1.3,0.1-6.4,1.1-11.5,0.7c-1-0.1-21.8,3.5-22.6,3.5
					C395.6,445.3,394.7,442.4,393,441.9z"/>
				<g>
					<polygon class="st10" points="424.6,432.5 443.8,443.5 447.6,444.2 446.3,442.3 427.2,431.3 					"/>
					<path class="st25" d="M424.6,432.5c0.3,0.2,1.1,0,1.8-0.3c0.7-0.3,1-0.8,0.8-0.9c-0.3-0.2-1.1,0-1.8,0.3
						C424.7,431.9,424.4,432.4,424.6,432.5z"/>
				</g>
				<path class="st1" d="M429.3,436.5c0.3,0,3.7,0.6,6.2,0.8c2.5,0.2,6.4,0.7,6.9,1.7c0.5,1-1,1.1-3,1s-4.5,1-7.8,0.3
					C428.3,439.5,429.3,436.5,429.3,436.5z"/>
			</g>
			<g>
				<path class="st1" d="M477.5,452.3c5.9-2.1,10.1-3.8,13.4-3.7c2,0,2.7,0.5,1.8,1.8c5.9,1,1.8,8.6-7.7,11.4
					c-7.5,2.2-11.6,0.5-17.2,2.3c-1.9,0.6-5.3,2.6-7.7,4.2c-9.6,6.6-12.8,10.3-21,13.7c-8.2,3.4-11.6,1.3-20.2,0.5
					c-9.2-0.8-28.8-14.2-28.8-14.2l21.5-10.5l20.2,13.5c0,0,19.4-10.5,26.1-13.8c4.2-2.1,2.8-3.8,2.6-6.2c-0.2-2-1.2-2.9,1.8-2.9
					c3.7,0,3.4,3.6,4.6,5C467.9,454.9,476.3,452.7,477.5,452.3z"/>
				<path class="st20" d="M387.4,448.9c0,0,8.2-3.1,15.9-1.6c7.7,1.5,14.1,8.4,17.8,12.3c3.7,3.9,9,8.9,9,8.9s-5.1,5.4-12,7.9
					c-6.9,2.4-17.2,4.9-17.2,4.9s-12.9-5.6-17.8-13.9C378.3,458.9,380.3,450.5,387.4,448.9z"/>
			</g>
			<path class="st4" d="M407.6,435.3c-4-2.9-10.9-6.1-14-9.4c-2.6-2.7-0.5-5.8,2.3-8.8c5,0.3,10.2-0.7,17.1-2.4
				c-2.6-8.6-9.8-16.7-28.3-12.9c-7.6-4-18.9-1.7-23.1,1.1c-3.5,2.3-4.7,5.5-5.4,8.4c-1.7,6.4-2.6,11.2-10.6,16.3
				c-8.3,5.2-18,9.7-17.4,17.2c0.4,5.1,5.9,11.3,15.2,13c0.3,1.4,1.1,2.7,2.3,4.1c3.9,4.2,11.6,6.7,20,6.5
				c-7.3-6.1-2.9-9.1,3.1-12.4c6,4.5,19.5,3.7,23.8,2c6.5-2.4,10.4-6.3,11.2-10.3c3.1,1.5,6.2,2.9,9.4,4.3
				C418.9,446.3,414.8,440.5,407.6,435.3z"/>
		</g>
		<g>
			<g>
				<path class="st18" d="M368.2,267.7l-2.3,1.4c-0.9-0.4-1.9-0.9-3.1-1.3l-33.9-10.7c-7.7-2.4-19.4-2.7-26-0.6l-54.1,17.1
					c-0.4,0.1-0.7,0.3-1,0.4l-2.5-1.5c0,0-2.7,2.9-0.5,5.9c0,0,0.1,0.1,0.1,0.1c0.8,1.2,2.8,2.4,5.8,3.3l33.9,10.7
					c7.7,2.4,19.4,2.7,26,0.6l54.1-17.1c1.9-0.6,3.2-1.4,3.8-2.2c0.1-0.1,0.2-0.2,0.3-0.3C371,270.5,368.2,267.7,368.2,267.7z"/>
				<path class="st28" d="M310.6,290.2l54.1-17.1c6.6-2.1,5.8-5.8-1.9-8.2l-33.9-10.7c-7.7-2.4-19.4-2.7-26-0.6l-54.1,17.1
					c-6.6,2.1-5.8,5.8,1.9,8.2l33.9,10.7C292.3,292,304,292.3,310.6,290.2z"/>
			</g>
			<g>
				<g>
					<path class="st2" d="M309.8,255.4l4.4-1.4c0.4-0.1,1.2-0.1,1.7,0l2.4,0.8c0.5,0.2,0.5,0.4,0.1,0.5l-4.4,1.4
						c-0.4,0.1-1.2,0.1-1.7,0l-2.4-0.8C309.5,255.8,309.4,255.5,309.8,255.4z"/>
					<path class="st2" d="M292.7,260.8l13.1-4.1c0.4-0.1,1.2-0.1,1.7,0l2.4,0.8c0.5,0.2,0.5,0.4,0.1,0.5l-13.1,4.1
						c-0.4,0.1-1.2,0.1-1.7,0l-2.4-0.8C292.3,261.2,292.2,260.9,292.7,260.8z"/>
					<path class="st2" d="M284.2,263.5l4.4-1.4c0.4-0.1,1.2-0.1,1.7,0l2.4,0.8c0.5,0.2,0.5,0.4,0.1,0.5l-4.4,1.4
						c-0.4,0.1-1.2,0.1-1.7,0l-2.4-0.8C283.9,263.8,283.8,263.6,284.2,263.5z"/>
					<path class="st2" d="M322.7,259.5l4.4-1.4c0.4-0.1,1.2-0.1,1.7,0l2.4,0.8c0.5,0.2,0.5,0.4,0.1,0.5l-4.4,1.4
						c-0.4,0.1-1.2,0.1-1.7,0l-2.4-0.8C322.4,259.8,322.3,259.6,322.7,259.5z"/>
					<path class="st2" d="M314.3,262.1l4.4-1.4c0.4-0.1,1.2-0.1,1.7,0l2.4,0.8c0.5,0.2,0.5,0.4,0.1,0.5l-4.4,1.4
						c-0.4,0.1-1.2,0.1-1.7,0l-2.4-0.8C313.9,262.5,313.9,262.3,314.3,262.1z"/>
					<path class="st2" d="M305.6,264.9l4.4-1.4c0.4-0.1,1.2-0.1,1.7,0l2.4,0.8c0.5,0.2,0.5,0.4,0.1,0.5l-4.4,1.4
						c-0.4,0.1-1.2,0.1-1.7,0l-2.4-0.8C305.2,265.3,305.1,265,305.6,264.9z"/>
					<path class="st2" d="M297.1,267.5l4.4-1.4c0.4-0.1,1.2-0.1,1.7,0l2.4,0.8c0.5,0.2,0.5,0.4,0.1,0.5l-4.4,1.4
						c-0.4,0.1-1.2,0.1-1.7,0l-2.4-0.8C296.8,267.9,296.7,267.7,297.1,267.5z"/>
					<path class="st2" d="M329.2,261.5l4.4-1.4c0.4-0.1,1.2-0.1,1.7,0l2.4,0.8c0.5,0.2,0.5,0.4,0.1,0.5l-4.4,1.4
						c-0.4,0.1-1.2,0.1-1.7,0l-2.4-0.8C328.8,261.9,328.8,261.6,329.2,261.5z"/>
					<path class="st2" d="M320.8,264.2l4.4-1.4c0.4-0.1,1.2-0.1,1.7,0l2.4,0.8c0.5,0.2,0.5,0.4,0.1,0.5l-4.4,1.4
						c-0.4,0.1-1.2,0.1-1.7,0l-2.4-0.8C320.4,264.5,320.3,264.3,320.8,264.2z"/>
					<path class="st2" d="M312,266.9l4.4-1.4c0.4-0.1,1.2-0.1,1.7,0l2.4,0.8c0.5,0.2,0.5,0.4,0.1,0.5l-4.4,1.4
						c-0.4,0.1-1.2,0.1-1.7,0l-2.4-0.8C311.7,267.3,311.6,267.1,312,266.9z"/>
					<path class="st2" d="M303.6,269.6l4.4-1.4c0.4-0.1,1.2-0.1,1.7,0l2.4,0.8c0.5,0.2,0.5,0.4,0.1,0.5l-4.4,1.4
						c-0.4,0.1-1.2,0.1-1.7,0l-2.4-0.8C303.2,270,303.2,269.7,303.6,269.6z"/>
					<path class="st2" d="M337.4,264.1l4.4-1.4c0.4-0.1,1.2-0.1,1.7,0l2.4,0.8c0.5,0.2,0.5,0.4,0.1,0.5l-4.4,1.4
						c-0.4,0.1-1.2,0.1-1.7,0l-2.4-0.8C337,264.5,337,264.2,337.4,264.1z"/>
					<path class="st2" d="M328.9,266.8l4.4-1.4c0.4-0.1,1.2-0.1,1.7,0l2.4,0.8c0.5,0.2,0.5,0.4,0.1,0.5l-4.4,1.4
						c-0.4,0.1-1.2,0.1-1.7,0l-2.4-0.8C328.6,267.1,328.5,266.9,328.9,266.8z"/>
					<path class="st2" d="M320.2,269.5l4.4-1.4c0.4-0.1,1.2-0.1,1.7,0l2.4,0.8c0.5,0.2,0.5,0.4,0.1,0.5l-4.4,1.4
						c-0.4,0.1-1.2,0.1-1.7,0l-2.4-0.8C319.8,269.9,319.8,269.6,320.2,269.5z"/>
					<path class="st2" d="M311.8,272.2l4.4-1.4c0.4-0.1,1.2-0.1,1.7,0l2.4,0.8c0.5,0.2,0.5,0.4,0.1,0.5l-4.4,1.4
						c-0.4,0.1-1.2,0.1-1.7,0l-2.4-0.8C311.4,272.5,311.3,272.3,311.8,272.2z"/>
					<path class="st2" d="M316.3,257.4l4.4-1.4c0.4-0.1,1.2-0.1,1.7,0l2.4,0.8c0.5,0.2,0.5,0.4,0.1,0.5l-4.4,1.4
						c-0.4,0.1-1.2,0.1-1.7,0l-2.4-0.8C315.9,257.8,315.9,257.6,316.3,257.4z"/>
					<path class="st2" d="M307.8,260.1l4.4-1.4c0.4-0.1,1.2-0.1,1.7,0l2.4,0.8c0.5,0.2,0.5,0.4,0.1,0.5l-4.4,1.4
						c-0.4,0.1-1.2,0.1-1.7,0l-2.4-0.8C307.5,260.5,307.4,260.2,307.8,260.1z"/>
					<path class="st2" d="M299.1,262.8l4.4-1.4c0.4-0.1,1.2-0.1,1.7,0l2.4,0.8c0.5,0.2,0.5,0.4,0.1,0.5l-4.4,1.4
						c-0.4,0.1-1.2,0.1-1.7,0l-2.4-0.8C298.7,263.2,298.7,263,299.1,262.8z"/>
					<path class="st2" d="M290.7,265.5l4.4-1.4c0.4-0.1,1.2-0.1,1.7,0l2.4,0.8c0.5,0.2,0.5,0.4,0.1,0.5l-4.4,1.4
						c-0.4,0.1-1.2,0.1-1.7,0l-2.4-0.8C290.3,265.9,290.3,265.6,290.7,265.5z"/>
					<path class="st2" d="M275.7,266.2l4.4-1.4c0.4-0.1,1.2-0.1,1.7,0l2.4,0.8c0.5,0.2,0.5,0.4,0.1,0.5l-4.4,1.4
						c-0.4,0.1-1.2,0.1-1.7,0l-2.4-0.8C275.3,266.6,275.2,266.3,275.7,266.2z"/>
					<path class="st2" d="M288.6,270.3l4.4-1.4c0.4-0.1,1.2-0.1,1.7,0l8.9,2.8c0.5,0.2,0.5,0.4,0.1,0.5l-4.4,1.4
						c-0.4,0.1-1.2,0.1-1.7,0l-8.9-2.8C288.2,270.6,288.1,270.4,288.6,270.3z"/>
					<path class="st2" d="M303.2,274.9l4.4-1.4c0.4-0.1,1.2-0.1,1.7,0l2.4,0.8c0.5,0.2,0.5,0.4,0.1,0.5l-4.4,1.4
						c-0.4,0.1-1.2,0.1-1.7,0l-2.4-0.8C302.8,275.2,302.8,275,303.2,274.9z"/>
					<path class="st2" d="M282.1,268.2l4.4-1.4c0.4-0.1,1.2-0.1,1.7,0l2.4,0.8c0.5,0.2,0.5,0.4,0.1,0.5l-4.4,1.4
						c-0.4,0.1-1.2,0.1-1.7,0l-2.4-0.8C281.7,268.6,281.7,268.4,282.1,268.2z"/>
				</g>
				<g>
					<path class="st2" d="M267.2,268.8l4.4-1.4c0.4-0.1,1.2-0.1,1.7,0l2.4,0.8c0.5,0.2,0.5,0.4,0.1,0.5l-4.4,1.4
						c-0.4,0.1-1.2,0.1-1.7,0l-2.4-0.8C266.8,269.2,266.8,269,267.2,268.8z"/>
					<path class="st2" d="M250.1,274.3l13.1-4.1c0.4-0.1,1.2-0.1,1.7,0l2.4,0.8c0.5,0.2,0.5,0.4,0.1,0.5l-13.1,4.1
						c-0.4,0.1-1.2,0.1-1.7,0l-2.4-0.8C249.7,274.6,249.6,274.4,250.1,274.3z"/>
					<path class="st2" d="M280.1,272.9l4.4-1.4c0.4-0.1,1.2-0.1,1.7,0l2.4,0.8c0.5,0.2,0.5,0.4,0.1,0.5l-4.4,1.4
						c-0.4,0.1-1.2,0.1-1.7,0l-2.4-0.8C279.8,273.3,279.7,273.1,280.1,272.9z"/>
					<path class="st2" d="M271.7,275.6l4.4-1.4c0.4-0.1,1.2-0.1,1.7,0l2.4,0.8c0.5,0.2,0.5,0.4,0.1,0.5l-4.4,1.4
						c-0.4,0.1-1.2,0.1-1.7,0l-2.4-0.8C271.3,276,271.3,275.7,271.7,275.6z"/>
					<path class="st2" d="M263,278.3l4.4-1.4c0.4-0.1,1.2-0.1,1.7,0l2.4,0.8c0.5,0.2,0.5,0.4,0.1,0.5l-4.4,1.4
						c-0.4,0.1-1.2,0.1-1.7,0l-2.4-0.8C262.6,278.7,262.5,278.5,263,278.3z"/>
					<path class="st2" d="M286.6,275l4.4-1.4c0.4-0.1,1.2-0.1,1.7,0l2.4,0.8c0.5,0.2,0.5,0.4,0.1,0.5l-4.4,1.4
						c-0.4,0.1-1.2,0.1-1.7,0l-2.4-0.8C286.2,275.3,286.2,275.1,286.6,275z"/>
					<path class="st2" d="M278.1,277.6l4.4-1.4c0.4-0.1,1.2-0.1,1.7,0l2.4,0.8c0.5,0.2,0.5,0.4,0.1,0.5l-4.4,1.4
						c-0.4,0.1-1.2,0.1-1.7,0l-2.4-0.8C277.8,278,277.7,277.8,278.1,277.6z"/>
					<path class="st2" d="M269.4,280.4l4.4-1.4c0.4-0.1,1.2-0.1,1.7,0l2.4,0.8c0.5,0.2,0.5,0.4,0.1,0.5l-4.4,1.4
						c-0.4,0.1-1.2,0.1-1.7,0l-2.4-0.8C269,280.7,269,280.5,269.4,280.4z"/>
					<path class="st2" d="M294.8,277.5l4.4-1.4c0.4-0.1,1.2-0.1,1.7,0l2.4,0.8c0.5,0.2,0.5,0.4,0.1,0.5l-4.4,1.4
						c-0.4,0.1-1.2,0.1-1.7,0l-2.4-0.8C294.4,277.9,294.3,277.7,294.8,277.5z"/>
					<path class="st2" d="M286.3,280.2l4.4-1.4c0.4-0.1,1.2-0.1,1.7,0l2.4,0.8c0.5,0.2,0.5,0.4,0.1,0.5l-4.4,1.4
						c-0.4,0.1-1.2,0.1-1.7,0l-2.4-0.8C286,280.6,285.9,280.3,286.3,280.2z"/>
					<path class="st2" d="M277.6,283l4.4-1.4c0.4-0.1,1.2-0.1,1.7,0l2.4,0.8c0.5,0.2,0.5,0.4,0.1,0.5l-4.4,1.4
						c-0.4,0.1-1.2,0.1-1.7,0l-2.4-0.8C277.2,283.3,277.2,283.1,277.6,283z"/>
					<path class="st2" d="M310.3,277l4.4-1.4c0.4-0.1,1.2-0.1,1.7,0l2.4,0.8c0.5,0.2,0.5,0.4,0.1,0.5l-4.4,1.4
						c-0.4,0.1-1.2,0.1-1.7,0l-2.4-0.8C309.9,277.4,309.8,277.2,310.3,277z"/>
					<path class="st2" d="M301.8,279.7l4.4-1.4c0.4-0.1,1.2-0.1,1.7,0l2.4,0.8c0.5,0.2,0.5,0.4,0.1,0.5L306,281
						c-0.4,0.1-1.2,0.1-1.7,0l-2.4-0.8C301.4,280.1,301.4,279.8,301.8,279.7z"/>
					<path class="st2" d="M293.4,282.4l4.4-1.4c0.4-0.1,1.2-0.1,1.7,0l2.4,0.8c0.5,0.2,0.5,0.4,0.1,0.5l-4.4,1.4
						c-0.4,0.1-1.2,0.1-1.7,0l-2.4-0.8C293,282.7,293,282.5,293.4,282.4z"/>
					<path class="st2" d="M284.7,285.1l4.4-1.4c0.4-0.1,1.2-0.1,1.7,0l2.4,0.8c0.5,0.2,0.5,0.4,0.1,0.5l-4.4,1.4
						c-0.4,0.1-1.2,0.1-1.7,0l-2.4-0.8C284.3,285.5,284.2,285.2,284.7,285.1z"/>
					<path class="st2" d="M273.7,270.9l4.4-1.4c0.4-0.1,1.2-0.1,1.7,0l2.4,0.8c0.5,0.2,0.5,0.4,0.1,0.5l-4.4,1.4
						c-0.4,0.1-1.2,0.1-1.7,0l-2.4-0.8C273.3,271.3,273.2,271,273.7,270.9z"/>
					<path class="st2" d="M265.2,273.5l4.4-1.4c0.4-0.1,1.2-0.1,1.7,0l2.4,0.8c0.5,0.2,0.5,0.4,0.1,0.5l-4.4,1.4
						c-0.4,0.1-1.2,0.1-1.7,0l-2.4-0.8C264.9,273.9,264.8,273.7,265.2,273.5z"/>
					<path class="st2" d="M256.5,276.3l4.4-1.4c0.4-0.1,1.2-0.1,1.7,0l2.4,0.8c0.5,0.2,0.5,0.4,0.1,0.5l-4.4,1.4
						c-0.4,0.1-1.2,0.1-1.7,0l-2.4-0.8C256.1,276.7,256.1,276.4,256.5,276.3z"/>
				</g>
			</g>
			<path class="st7" d="M259.4,234.5c0,0,6.9,7.2,12.5,10.9c4.1,0.8,33.3,14.5,36.6,14.8c3.3,0.2,11.5-0.3,17.9,3.1
				c6.4,3.4,7.3,4.8,7.5,7c0.1,1.3-2,2.5-4.4,2c-2.7-0.6-5.3-2.6-8.6-3.8c-3.6-1.3-9-2.4-9.1-1.9c-0.1,0.5-0.9,1.2,2,2.2
				c2.5,0.8,4.5,2.4,3.8,3c-0.7,0.7-6.4-1.6-7.7-1.9c-5.4-1.3-6.3-4.2-9.9-5.4c-6.5-2.1-27.9-8.6-36-11.1
				c-3.8-1.6-15.8-8.1-15.8-11.2c1.4-1.3,1.9-1.9,2.7-2.9C253.8,237.9,258.4,235.6,259.4,234.5z"/>
			<g>
				<path class="st18" d="M400.8,235c-2-2-6.3-2.2-6.9-2.3c0,0,0,0-0.1,0c0,0-0.1,0-0.1,0l0,0c-1.5,0-3.3,0.3-5,0.8l-63.9,20
					c-3.9,1.2-7.4,3.9-9.2,6.8c-0.7,1.2-13,16.9-16.6,22.1c-1.5,2.1-1.9,3.6-1.6,4.6c0,0,0,0,0,0s0,0,0,0c0,0.2,0.1,0.3,0.2,0.4
					c0.9,2.4,6.4,2.5,6.4,2.5l0.5-2.2c0.1,0,0.3-0.1,0.4-0.1l57.6-18.2c5.8-1.8,10.4-6.1,14-10.3c0,0,13.5-15.8,17.8-20.8l1.2,0.6
					C395.7,239.1,402.2,236.4,400.8,235z"/>
				<path class="st20" d="M367,270.9l-57.6,18.2c-5.8,1.8-10.2,1-5.9-5.2c3.6-5.2,15.8-20.9,16.6-22.1c1.8-2.9,5.3-5.6,9.2-6.8
					l63.9-20c3.5-1.1,7.4-1.3,8.2,0.6c0.3,0.8-0.4,1.9-1.2,2.8c-0.6,0.6-19,22.2-19,22.2C377.4,264.9,372.8,269.1,367,270.9z"/>
			</g>
			<g>
				<polygon class="st23" points="324,287.5 314.9,290.3 318.2,285.8 327.4,282.9 				"/>
				<polygon class="st2" points="327.4,282.9 325.9,282.4 316.8,285.3 318.2,285.8 				"/>
				<polygon class="st2" points="314.9,290.3 313.4,289.9 316.8,285.3 318.2,285.8 				"/>
			</g>
			<g>
				<polygon class="st23" points="363.1,275.1 354,277.9 357.4,273.4 366.5,270.5 				"/>
				<polygon class="st2" points="366.5,270.5 365,270 355.9,272.9 357.4,273.4 				"/>
				<polygon class="st2" points="354,277.9 352.5,277.5 355.9,272.9 357.4,273.4 				"/>
			</g>
		</g>
		<path class="st7" d="M176.4,248.4c0,0,11.1,7.1,14.5,10.9c3.5,3.9,9.9,6.2,19.6,7.1c9.7,0.9,33.1,1.1,36.6,2.8
			c3.5,1.7,2,1.6,8.1,3.4c2.6,0.8,8.7,1.4,14.7,1.5c1.5,0,5.1,3,7.2,2.6c3.3-0.6-0.5-2.1-0.5-2.1s1.3,0.9,5.4,0.7
			c4.1-0.2-0.3-3-0.3-3s4.3,0.3,4.7-0.3c0.3-0.6-4.8-3.8-8.7-5.6c-4.3-1.9-15.8-3-22.1-3.5c-6.3-0.6-16.5-1.8-21.5-2.8
			c-5-1-24.8-6.5-24.8-6.5l-7.5-9.5L176.4,248.4z"/>
		<path class="st19" d="M175.3,254.3c11-0.6,25.1-3.4,32.1-7.6c-1.4-3.6-8.4-11.8-9.4-13.3c-2.6-3.9-13.2-13.1-24.5-10.9
			c-8.4,1.7-15.5,8.9-5.4,21.2C170.4,246.6,173,251.2,175.3,254.3z"/>
	</g>
</g>
</svg>
